<?xml version="1.0" encoding="utf-8"?>
<!-- Generator: Adobe Illustrator 19.0.0, SVG Export Plug-In . SVG Version: 6.00 Build 0)  -->
<svg version="1.1" id="Layer_1" xmlns="http://www.w3.org/2000/svg" xmlns:xlink="http://www.w3.org/1999/xlink" x="0px" y="0px"
	 viewBox="0 0 754.5 561" style="enable-background:new 0 0 754.5 561;" xml:space="preserve">
<style type="text/css">
	.st0{fill:#F0FBFC;}
	.st1{fill:#F1D5BF;}
	.st2{fill:#8BFFF4;}
	.st3{fill:#05BBC9;}
	.st4{fill:#DDDDDD;}
	.st5{fill:#AAAAAA;}
	.st6{fill:#CCCCCC;}
	.st7{fill:#8CFF56;}
	.st8{fill:#B60004;}
	.st9{fill:#FFFFFF;}
	.st10{fill:#CD4500;}
	.st11{fill:#A22600;}
	.st12{fill:#FFEEF7;stroke:#BA9BC9;stroke-width:6;stroke-miterlimit:10;}
	.st13{fill:#9E005D;}
	.st14{fill:#E498FF;}
	.st15{fill:#873100;}
	.st16{fill:#FFEEF7;stroke:#BA9BC9;stroke-width:4;stroke-miterlimit:10;}
	.st17{fill:#8B0057;}
</style>
<g id="XMLID_330_">
	<path id="XMLID_242_" class="st0" d="M120.3,283.5c0,3,0.1,16.7-8.4,25c-8,7.9-18,5.6-30,7.4c-23.5,3.6-53.2,23-56.3,48.5
		c-2.4,20,11.8,41.1,28.9,49.1c6.8,3.2,13.5,4.7,26.7,4c20.2-1.1,40.5-2.1,60.7-3.2c9.8-0.5,21-0.5,27.6,6.8
		c3.3,3.7,4.8,8.6,5.6,13.5c4.8,29.6-12.1,63.4,4.7,88.3c11.6,17,36,21.8,55.4,14.7c19.3-7,33.9-23.4,44.2-41.2
		c7.1-12.4,12.6-25.9,22.4-36.3c17.8-18.8,45.5-23.5,71.1-27c4.7-0.7,9.5-1.3,14.1-0.1c7,1.8,12.2,7.7,16.7,13.3
		c12.2,15.2,23.5,31.8,39.6,42.8c16.2,11,39.1,14.9,54.8,3.3c9.8-7.3,15-19,21.5-29.3c14.4-22.8,40.9-40.9,67.2-35.2
		c13.3,2.9,13.8,7.7,40.1,23c30.3,17.6,53.4,31,75.2,24.4c23.3-7,43.9-36.7,39-60c-5.8-27.9-43.3-23.4-79.4-64.3
		c-7.4-8.4-46.8-52.6-34.1-88.8c10.5-30,44.1-46.7,57-75.8c2.9-6.5,4.6-13.6,3.6-20.6c-2.7-18.5-34.5-26-53.6-27.4
		c-55.2-4.1-70.8,43.5-105,35.4c-40.8-9.7-41.9-82.5-94.6-94.1c-4.9-1.1-12-3-20.9-1.1c-31.5,6.7-41.3,56.2-73.4,58.6
		c-16,1.2-29.8-10.5-44.7-16.5c-21.7-8.7-48.1-4.4-66,10.7c-6.9,24.9,26.5,42.9,31.7,68.2c5.3,25.9-21.9,48.4-48.1,51.5
		c-26.3,3.1-52.3-6.2-78.6-8.8c-5.2-0.5-10.3,1.8-10.3,1.8c-5.4,1.6-8.8,2.6-10.6,4.8C109,255.2,120.3,265.5,120.3,283.5z"/>
	<g id="XMLID_150_">
		<path id="XMLID_177_" class="st1" d="M264,328.2l38.4,55.5c0.9,1.4,0.6,3.2-0.8,4.2l-7.2,5c-1.4,0.9-3.2,0.6-4.2-0.8l-38.4-55.5
			c-0.9-1.4-0.6-3.2,0.8-4.2l7.2-5C261.2,326.5,263,326.8,264,328.2z"/>
		<path id="XMLID_176_" class="st1" d="M138.9,357.9"/>
		<path id="XMLID_175_" class="st2" d="M192.2,486.5L192.2,486.5c-52.7,0-95.8-43.1-95.8-95.8v-4.9c0-52.7,43.1-95.8,95.8-95.8h0
			c52.7,0,95.8,43.1,95.8,95.8v4.9C288,443.4,244.9,486.5,192.2,486.5z"/>
		<path id="XMLID_174_" class="st1" d="M209.4,321.1L209.4,321.1c-32,0-58.2-25.1-58.2-55.7v-27.9c0-30.6,26.2-55.7,58.2-55.7h0
			c32,0,58.2,25.1,58.2,55.7v27.9C267.5,296,241.3,321.1,209.4,321.1z"/>
		<circle id="XMLID_173_" cx="194.6" cy="258.8" r="9.8"/>
		<circle id="XMLID_172_" cx="246.2" cy="260.5" r="9.8"/>
		<path id="XMLID_171_" class="st3" d="M180.1,485.9c-3.4-0.4-8.2-1-14.4-2.8c-3.5-1-6-2-10-3.6c-6.8-2.7-10.5-4.2-14.7-6.9
			c-5.4-3.5-8.1-5.2-9-7.6c-2.4-6,4.3-11,16.8-31.3c8.3-13.5,12.7-25.8,15.2-33.8c-8.3,2.4-59.5,16.8-67,2.7c-1-1.8-1.3-4.4-0.2-8.2
			c38.6,9.1,70.3-7.8,75.8-29.1c4.1-15.8-7-31.4-10.6-36c-4.8-4.2-11.9-8.9-21.3-11.1c-7.3-1.6-12.6-0.9-13.3-3.3
			c-0.9-2.9,5.4-8.5,12.3-9.8c4.8-0.9,8.9,0.4,12.5,1.8c12.9,5.4,22.5,15.2,28.3,22.1c3.8,2.4,8.7,5.1,14.7,7.2
			c10.4,3.6,19.7,4,25.8,3.7c16.1-0.5,28.6-5.3,30.9-11.1c1.8-4.5,2-8.2,2-8.2c0-4.1-0.6-6.9,0.4-7.4c0.9-0.4,2.8,1.7,4,3.4
			c4,5.8,3.7,12.7,3.7,13.5c-0.2,6.1,4.8,20.1,26.9,54.8c0,1.1,0,2.8,0,4.9c-0.2,7-0.7,23.9-9.8,42.2c-4.3,8.6-9,14.5-12.2,18.5
			c-3.4,4.2-8,9.9-15.5,15.9c-2.1,1.7-12.1,9.5-27.5,14.8c-11,3.8-20.1,4.8-24.5,5.1C197.7,486.6,190,487.1,180.1,485.9z"/>
		<path id="XMLID_170_" class="st1" d="M151.2,348l-4.6,67.3c-0.1,1.6-1.6,2.9-3.2,2.8l-8.7-0.6c-1.6-0.1-2.9-1.6-2.8-3.2l4.6-67.3
			c0.1-1.6,1.6-2.9,3.2-2.8l8.7,0.6C150,344.9,151.3,346.3,151.2,348z"/>
		<g id="XMLID_161_">
			<path id="XMLID_169_" class="st4" d="M401.9,387c-44,6.4-87.9,12.8-131.9,19.2c-5.5-7.5-10.9-15-16.4-22.5
				c0.4-0.1,1.3-0.2,2.6-0.4c7.6-1.2,13.6-1.8,16.4-2.2c6.7-0.7,50.9-5.4,111.7-11.8c2.4,0.8,6.9,2.7,11.1,7
				C399.3,380.4,401.1,384.7,401.9,387z"/>
			<polygon id="XMLID_168_" class="st5" points="367.5,441.1 401.9,387 270,406.3 242.9,467.3 			"/>
			<path id="XMLID_167_" class="st6" d="M221.6,449.4c0.1-0.6,0.3-1.5,0.7-2.6c0.4-1.2,0.9-2.1,1-2.3c1.3-2.5,17.3-39.2,21.7-49.8
				c0.6-1.6,2.5-6.1,6.9-9.7c0.7-0.6,1.3-1,1.7-1.3c5.5,7.5,10.9,15,16.4,22.5c-9,20.4-18,40.7-27,61.1c-6.6-3.5-13.5-8.5-19.5-15.7
				C222.8,450.9,222.2,450.1,221.6,449.4z"/>
			<path id="XMLID_166_" class="st4" d="M366.1,441.4c-21.8,4.2-43.6,8.4-65.4,12.6c-3.8-5.8-7.6-11.7-11.4-17.5
				c24.4-3.8,48.7-7.6,73.1-11.4c1,1.5,2.6,4.1,3.4,7.7C366.7,436.5,366.4,439.5,366.1,441.4z"/>
			<path id="XMLID_165_" class="st5" d="M273.4,466"/>
			<path id="XMLID_164_" class="st6" d="M289.5,467.3c-5.6-2-11.2-4-16.8-5.9c5.6-8.3,11.1-16.6,16.7-24.9
				c3.9,5.8,7.7,11.7,11.6,17.5C297.2,458.4,293.4,462.9,289.5,467.3z"/>
			<path id="XMLID_163_" class="st5" d="M289.6,467.2c20.2-3.4,40.3-6.8,60.5-10.1c5.3-5.2,10.6-10.4,16-15.7
				c-21.6,4.1-43.2,8.2-64.8,12.3C297.4,458.2,293.5,462.7,289.6,467.2z"/>
			<path id="XMLID_162_" class="st7" d="M368,510.5"/>
		</g>
		<g id="XMLID_144_">
			<path id="XMLID_148_" class="st8" d="M209.2,374.6l-24.4-1.3c-0.4,0-0.7-0.4-0.7-0.7l0.7-12c0-0.4,0.4-0.7,0.7-0.7l24.4,1.3
				c0.4,0,0.7,0.4,0.7,0.7l-0.7,12C209.9,374.3,209.6,374.6,209.2,374.6z"/>
			<path id="XMLID_147_" class="st9" d="M208.4,373.4l-22.6-1.2c-0.3,0-0.6-0.3-0.5-0.6l0.4-7.8c0-0.3,0.3-0.6,0.6-0.5l22.6,1.2
				c0.3,0,0.6,0.3,0.5,0.6l-0.4,7.8C209,373.2,208.7,373.4,208.4,373.4z"/>
			<g id="XMLID_145_">
				<path id="XMLID_146_" d="M187.6,365.3c-0.4,1.5-1.2,3.2-1.3,4.7c0,0.3,0.2,0.5,0.5,0.6c1.7,0.7,3.8-2.3,4.9-3.2
					c-0.4-0.2-0.8-0.3-1.1-0.5c-0.1,0.7-0.3,1.4-0.4,2.1c-0.2,0.8,0.8,1.1,1.2,0.5c0.7-0.7,1.5-1.3,2.2-2c-0.3-0.2-0.7-0.4-1-0.6
					c0.1,0.9,0.2,1.7,0.1,2.6c0,0.5,0.6,0.9,1,0.6c1.5-1,2.3-0.8,4.1-0.6c2.5,0.3,5.1,0.2,7.6,0.2c0.9,0,0.9-1.3,0-1.3
					c-3.1-0.1-6.3-0.4-9.4-0.5c-1.4-0.1-1.7,0.1-3,1c0.3,0.2,0.7,0.4,1,0.6c0.1-0.9,0.1-1.7-0.1-2.6c0-0.5-0.5-0.9-1-0.6
					c-1.1,0.7-1.9,1.4-2.7,2.5c0.4,0.2,0.8,0.3,1.2,0.5c0.4-1.3,0.3-1.1,0.5-2.5c0.1-0.6-0.7-0.8-1.1-0.5c-0.3,0.2-2.5,2.4-2.7,2.2
					c-0.2-0.1,0.7-2.7,0.8-3.1C189.2,364.9,187.9,364.5,187.6,365.3L187.6,365.3z"/>
			</g>
		</g>
		<path id="XMLID_131_" class="st10" d="M148.7,242c-1.6-1.1-0.9-5.6,0.4-14.7c1.8-12.5,2.7-18.8,6.1-24.2
			c5.2-8.1,15.9-16.1,21.4-13.1c5.4,2.8,4.6,14.9,2.7,22.1C174.4,231.8,153.6,245.4,148.7,242z"/>
		<path id="XMLID_130_" class="st11" d="M268.7,235.9c5-4.7-1.2-19.7-6.6-28.3c-11.8-19-33.8-30.4-55.7-31.5
			c-8.8-0.4-28.8-1.4-35.6,10.6c-5,8.8-1.7,22.7,6.1,30.7c12.4,12.6,27,1.2,61.4,11.1C255.9,233.5,264.5,239.9,268.7,235.9z"/>
	</g>
	<g id="XMLID_154_">
		<path id="XMLID_151_" class="st12" d="M348.2,56.9c-6.4-3.9-15.2-0.9-20.1,4.7s-7,13.2-8.8,20.4c2.1,0.8,4.3,1.6,6.4,2.4
			c-1.9,0.2-3.7,0.4-5.6,0.5c-4.5,11.3-3.1,24.7,3.7,34.8c-7,3.3-11.2,11.8-9.6,19.4c1.7,7.6,9,13.6,16.8,13.7
			c-3.1-0.6-6.1-1.2-9.2-1.8c-3.8,8.6-2.2,19.3,3.8,26.5s16.3,10.6,25.4,8.4c-4.3,6.6-0.8,16.9,6.6,19.6c7.4,2.7,16.6-3,17.6-10.8
			c1.8,8,5.3,16.5,12.7,20.2c7.4,3.7,18.6-1,18.3-9.2c9.4,6.4,19.2,13,30.4,14.7c11.2,1.7,24.3-2.9,28.5-13.5
			c10.2,0.1,20.2-5.9,24.8-15c4.6-9.1,3.5-20.8-2.6-28.9c10.6-3.7,18-14.9,17.4-26.1s-9.3-21.5-20.3-23.9c2-12.6,4-25.1,6-37.7
			c0.7-4.5,1.4-9.3-0.8-13.4c-4.9-9.2-20.3-7.5-25.7-16.4c-4.8-7.9-0.2-21.5-8.7-25c-2.1-0.9-4.5-0.7-6.7-0.4
			c-11.6,1.4-22.8,6-32,13.2c-10.6-5.3-22.7-8.7-34.3-6.4c-11.6,2.3-22.4,11.7-23.3,23.5c-3.1-0.7-6.3-1.5-9.4-2.2
			c-1.6,3.5-2.2,7.5-1.5,11.4"/>
		<g id="XMLID_138_">
			<g id="XMLID_132_">
				<g id="XMLID_141_">
					<path id="XMLID_143_" class="st13" d="M467.3,169.9l-98.8,9.3c-1.8,0.2-3.5-1.2-3.6-3L354.5,65.8c-0.2-1.8,1.2-3.5,3-3.6
						l98.8-9.3c1.8-0.2,3.5,1.2,3.6,3l10.4,110.4C470.5,168.1,469.1,169.7,467.3,169.9z"/>
					<path id="XMLID_142_" class="st9" d="M463.7,165.5l-92.5,8.7c-1.2,0.1-2.4-0.8-2.5-2l-9.4-99.6c-0.1-1.2,0.8-2.4,2-2.5
						l92.5-8.7c1.2-0.1,2.4,0.8,2.5,2l9.4,99.6C465.9,164.2,465,165.4,463.7,165.5z"/>
				</g>
			</g>
			<g id="XMLID_129_">
				<g id="XMLID_205_">
					<path id="XMLID_209_" class="st13" d="M381.3,93.5c-0.6-4.3,0-8.8,2-12.7c0.2-0.4,0.7-1.7,1.1-1.9c1.4-0.7,1.9,1.5,2.2,2.4
						c0.8,2.3,0.9,4.7,0.7,7.1c0.8,0,1.5,0,2.3,0c0.2-1.8,0.4-3.6,0.8-5.3c0.2-0.9,0.5-1.8,0.9-2.6c2.1-0.3,3.2,0.3,3.4,2
						c1.1,3.2-0.2,7.3-1.1,10.4c-0.4,1.4,1.8,2,2.2,0.6c1.1-4,3.6-13.8-1.8-16.1c-5.5-2.3-6.4,8.1-6.7,11.1c-0.1,1.5,2.1,1.4,2.3,0
						c0.2-2.3-1-15.6-5.8-12.4c-2.1,1.4-3.4,5.5-4.1,7.9c-0.9,3.4-1,6.8-0.6,10.2C379.3,95.5,381.5,94.9,381.3,93.5L381.3,93.5z"/>
				</g>
			</g>
			<g id="XMLID_133_">
				<g id="XMLID_97_">
					<path id="XMLID_202_" class="st13" d="M399.7,85.7c0.7,4.1,6.3,3.1,7.7,0c1.6-3.5-3.1-5.5-5.6-3.6c-2.6,1.9-4.4,7.2-1.5,9.5
						c4.1,3.2,8.3-1.4,12-2.7c1.4-0.5,0.8-2.7-0.6-2.2c-2.7,0.9-5.1,3.6-8,3.6c-2.6,0-2.8-2.2-2-4.3c0.3-0.8,0.7-1.7,1.5-2.1
						c0.4-0.4,0.9-0.5,1.4-0.4c0.3,2.6-0.6,3.1-2.7,1.5C401.7,83.7,399.5,84.3,399.7,85.7L399.7,85.7z"/>
				</g>
			</g>
			<g id="XMLID_134_">
				<g id="XMLID_90_">
					<path id="XMLID_95_" class="st13" d="M413.4,81.7c-0.1,3.1-0.3,6.3-0.4,9.4c0.7-0.1,1.5-0.2,2.2-0.3c-0.5-1.8-0.8-3.7-0.5-5.6
						c0.1-1.2,0.4-3,1.6-3.6c1.5-0.8,2.1,0.4,2.4,1.5c0.6,2.7-0.4,5.2,1.7,7.4c1,1.1,2.6-0.5,1.6-1.6c-1.7-1.8-0.5-5-1.3-7.2
						c-0.7-1.7-2.2-2.9-4.1-2.6c-5.2,0.8-4.5,8.8-3.5,12.4c0.4,1.3,2.2,1,2.2-0.3c0.1-3.1,0.3-6.3,0.4-9.4
						C415.8,80.2,413.5,80.2,413.4,81.7L413.4,81.7z"/>
				</g>
			</g>
			<g id="XMLID_135_">
				<g id="XMLID_56_">
					<path id="XMLID_62_" class="st13" d="M423.5,80.5c0.2,3.3-1.3,9.1,3.8,9.4c1.8,0.1,3.5-0.8,4.5-2.3c0.7-1,1-2.1,1.1-3.2
						c0.1-0.5-0.3-3.3,0-3.5c-0.6-0.3-1.1-0.7-1.7-1c0.4,3.1,0,10.6,5,9.7c1.4-0.3,0.8-2.5-0.6-2.2c-2,0.4-2-6.2-2.1-7.5
						c-0.1-0.8-0.9-1.5-1.7-1c-2.4,1.7-0.4,5-1.8,7.3c-0.5,0.8-1.4,1.5-2.4,1.5c-1.6,0-1.9-1.4-2-2.7c0-1.5,0.3-2.9,0.2-4.4
						C425.7,79.1,423.4,79.1,423.5,80.5L423.5,80.5z"/>
				</g>
			</g>
			<g id="XMLID_136_">
				<g id="XMLID_48_">
					<path id="XMLID_54_" class="st13" d="M405.5,119.7c1.2-5,4.2-14.1,11.2-12.1c8.2,2.4,1.6,12-1.2,15.4
						c-5.1,6.3-6.3,11.5-5.7,19.6c0.6-0.3,1.1-0.7,1.7-1c-5-3.2-4.9-8.9-1.2-13.1c1.9-2.2,4.4-3.8,6.4-5.9c2.8-3,5.3-7.5,3.3-11.6
						c-1.6-3.2-5.4-4.8-8.8-3.5c-5.8,2.2-3.8,9.9-8.7,12.7c-1.3,0.7-0.1,2.7,1.2,2c3.3-1.9,3.8-5,5-8.3c0.5-3,2.2-3.3,5.3-0.9
						c4.5-0.4,5.7,1.3,3.5,4.8c-0.6,1.2-1.5,2.3-2.4,3.2c-1.8,1.9-4,3.4-5.9,5.3c-5.1,5.3-5.5,13,1.2,17.2c0.7,0.4,1.8-0.1,1.7-1
						c-0.4-4.9-0.6-9.7,2.1-14.1c1.5-2.5,3.7-4.6,5.4-7c2.6-3.8,4.5-8.8,1.8-13.1c-2.2-3.3-6.2-3.9-9.7-2.5c-5.3,2.2-7.1,8-8.4,13.1
						C402.9,120.5,405.1,121.1,405.5,119.7L405.5,119.7z"/>
				</g>
			</g>
			<g id="XMLID_137_">
				<g id="XMLID_31_">
					<path id="XMLID_44_" class="st13" d="M414.4,149.5c-0.7-1.8-2.9-2.4-4.6-1.3c-2,1.3-1.3,4.2,0.5,5.4c2.1,1.3,4.8,0.1,5.5-2.1
						c0.9-2.5-1.1-4.7-3.5-5.1c-1.5-0.2-1.4,2.1,0,2.3c2.3,0.3,1.3,3.9-0.7,3.1c-0.5-0.2-1.2-1.1-0.7-1.6c0.2-0.2,1-0.4,1.2,0
						C412.7,151.4,414.9,150.9,414.4,149.5L414.4,149.5z"/>
				</g>
			</g>
		</g>
	</g>
	<g id="XMLID_139_">
		<path id="XMLID_181_" class="st11" d="M657.1,309.3c0.9-4.9-3.7-6.3-8.6-17.7c-11.1-25.4,1.1-41.6-5-55.9
			c-10.4-24.5-75.4-44.6-110.4-9.1c-23.6,23.9-25.2,64.5-7.9,88.3C558.8,361,653.4,330.6,657.1,309.3z"/>
		<g id="XMLID_149_">
			<path id="XMLID_180_" class="st1" d="M533.5,335.6l-61.2,28.4c-1.5,0.7-2.2,2.5-1.5,4l3.7,7.9c0.7,1.5,2.5,2.2,4,1.5l61.2-28.4
				c1.5-0.7,2.2-2.5,1.5-4l-3.7-7.9C536.8,335.5,535,334.9,533.5,335.6z"/>
			<path id="XMLID_179_" class="st1" d="M651.6,366.1"/>
			<path id="XMLID_160_" class="st14" d="M602.9,496.5L602.9,496.5c52.7-1.9,94.3-46.5,92.4-99.2l-0.2-4.9
				c-1.9-52.7-46.5-94.3-99.2-92.4h0c-52.7,1.9-94.3,46.5-92.4,99.2l0.2,4.9C505.6,456.8,550.2,498.4,602.9,496.5z"/>
			<path id="XMLID_159_" class="st1" d="M579.9,331.8L579.9,331.8c32-1.1,57.2-27.1,56.2-57.7l-1-27.8
				c-1.1-30.6-28.1-54.7-60.1-53.6h0c-32,1.1-57.2,27.1-56.2,57.7l1,27.8C520.9,308.8,547.9,332.9,579.9,331.8z"/>
			<circle id="XMLID_158_" cx="586.9" cy="266.7" r="9.8"/>
			<circle id="XMLID_157_" cx="541.6" cy="266.3" r="9.8"/>
			<path id="XMLID_155_" class="st1" d="M644.4,352.4l-21.3,64c-0.5,1.6,0.3,3.3,1.9,3.8l8.3,2.8c1.6,0.5,3.3-0.3,3.8-1.9l21.3-64
				c0.5-1.6-0.3-3.3-1.9-3.8l-8.3-2.8C646.6,349.9,644.9,350.8,644.4,352.4z"/>
		</g>
		<path id="XMLID_140_" class="st15" d="M641.1,251.8c7.9-7.3-0.3-34-16.8-49.4c-23.2-21.7-62.2-20.4-86.2-3
			c-21.4,15.6-31.8,44.7-25.2,50.9c6.1,5.7,21.1-13.6,50.4-16.8C604.6,229.1,630.9,261.2,641.1,251.8z"/>
	</g>
	<path id="XMLID_152_" class="st16" d="M427.8,234c-4.8,1.4-8.4,6.3-8.3,11.3c0.1,5,3.8,9.7,8.7,10.9c-1.5-2.9-5.9-3.7-8.3-1.5
		c-2.4,2.2-2,6.7,0.8,8.4c7.2,3.9,15.1,6.3,23.1,7.2c0.4-1.5,0-3.2-1.2-4.3c3.3-0.2,5.8-2.9,7.9-5.4c2.2-2.6,4.5-5.3,5.1-8.6
		c0.7-3.3-1-7.4-4.3-8.1c-4-1-8.4,3.1-12,1c-1.5-0.9-2.2-2.5-3.1-4c-3-5.2-10.1-9.1-15.1-5.6"/>
	<path id="XMLID_153_" class="st16" d="M486,261c-4.9-0.2-10.4-0.1-13.8,3.4c-3.5,3.4-1.8,11.2,3.1,10.9c-2.3,2.9-3.2,6.9-2.2,10.5
		c4.8,1.2,10,2.3,14.7,0.7s8.5-7.1,6.4-11.6c-2.7-6.2-7.7-11.3-13.8-14.3"/>
	<g id="XMLID_156_">
		<g id="XMLID_25_">
			<path id="XMLID_29_" d="M206.8,302.2c4.4-6.1,13.8-6.5,19-1.2c1.4,1.4,3.5-0.7,2.1-2.1c-6.6-6.8-18.1-5.8-23.7,1.8
				C203,302.2,205.6,303.7,206.8,302.2L206.8,302.2z"/>
		</g>
	</g>
	<g id="XMLID_178_">
		<g id="XMLID_19_">
			<path id="XMLID_23_" d="M556.7,308.6c4.4-6.1,13.8-6.5,19-1.2c1.4,1.4,3.5-0.7,2.1-2.1c-6.6-6.8-18.1-5.8-23.7,1.8
				C553,308.7,555.6,310.2,556.7,308.6L556.7,308.6z"/>
		</g>
	</g>
	<g id="XMLID_183_">
		<path id="XMLID_184_" class="st17" d="M653.5,162.6c-0.1,0.1-1.6,1.1-4.5,3.1c-1.8,1.3-3.2,2.4-4.2,3.5c-0.9,1-1.8,1.4-2.9,1.4
			c-1,0-1.9-0.4-2.7-1.1s-1.2-1.6-1.2-2.6c0-1.4,1.2-3.1,3.5-4.9c2.1-1.5,4.3-3,6.4-4.6c2.3-1.8,3.5-3.4,3.5-4.8
			c0-1.7-0.9-3.3-2.6-4.7c-1.7-1.5-3.5-2.2-5.3-2.2c-1,0-2.3,0.6-4,1.7c-1.7,1.1-2.9,1.7-3.6,1.7c-1.1,0-2-0.4-2.7-1.2
			s-1.1-1.7-1.1-2.6c0-1.8,1.6-3.5,4.7-5c2.7-1.3,4.9-1.9,6.7-1.9c3.9,0,7.5,1.4,10.6,4.3c3.2,2.9,4.8,6.2,4.8,9.9
			C659.1,156.5,657.2,159.7,653.5,162.6z M640.5,182.1c-1,0-2-0.3-2.8-1c-0.9-0.7-1.4-1.6-1.4-2.7c0-1.2,0.4-2.4,1.1-3.4
			c0.9-1.3,2-1.9,3.5-1.9c1.2,0,2.2,0.5,2.9,1.4c0.5,0.8,0.8,1.7,0.8,2.7c0,1.1-0.3,2.1-0.9,3.1
			C642.9,181.5,641.8,182.1,640.5,182.1z"/>
	</g>
	<g id="XMLID_182_">
		<path id="XMLID_187_" class="st17" d="M685.4,223.5c-0.1,0.1-1.3,1.5-3.5,4.2c-1.4,1.7-2.5,3.2-3.1,4.4c-0.6,1.1-1.4,1.9-2.4,2.1
			c-1,0.3-2,0.1-2.9-0.4c-0.9-0.5-1.5-1.3-1.8-2.2c-0.4-1.4,0.3-3.3,2.1-5.6c1.7-2,3.4-4,5.1-6.1c1.8-2.3,2.5-4.2,2.2-5.5
			c-0.4-1.6-1.7-2.9-3.7-3.9c-2-1-3.9-1.2-5.7-0.8c-0.9,0.2-2.1,1.1-3.5,2.6c-1.4,1.5-2.4,2.4-3.1,2.5c-1,0.3-2,0.1-2.9-0.5
			c-0.9-0.6-1.5-1.3-1.7-2.2c-0.5-1.7,0.6-3.7,3.3-6c2.3-1.9,4.2-3.1,6-3.6c3.8-1,7.6-0.5,11.4,1.5c3.8,2,6.2,4.8,7.1,8.4
			C689.2,216.1,688.2,219.8,685.4,223.5z M677.8,245.6c-1,0.3-2,0.2-3-0.2c-1.1-0.5-1.7-1.2-2-2.2c-0.3-1.2-0.3-2.4,0.2-3.6
			c0.5-1.5,1.5-2.4,2.9-2.8c1.2-0.3,2.2-0.1,3.1,0.6c0.7,0.6,1.2,1.4,1.5,2.4c0.3,1.1,0.3,2.1-0.1,3.2
			C680,244.4,679.1,245.3,677.8,245.6z"/>
	</g>
	<g id="XMLID_217_">
		<path id="XMLID_224_" class="st17" d="M571.9,149.9c-0.1,0.1-1.1,1.6-3.1,4.5c-1.3,1.8-2.1,3.4-2.6,4.8c-0.5,1.2-1.2,2-2.2,2.4
			c-1,0.4-1.9,0.3-2.9-0.1s-1.7-1.1-2-2c-0.5-1.3,0-3.3,1.5-5.8c1.5-2.2,2.9-4.4,4.4-6.6c1.5-2.5,2.1-4.4,1.5-5.7
			c-0.6-1.6-2-2.7-4.1-3.5c-2.1-0.8-4-0.8-5.8-0.2c-0.9,0.3-2,1.3-3.1,3c-1.2,1.6-2.1,2.6-2.8,2.8c-1,0.4-2,0.3-2.9-0.1
			c-1-0.5-1.6-1.2-2-2c-0.6-1.7,0.2-3.8,2.7-6.3c2-2.2,3.9-3.5,5.5-4.2c3.7-1.4,7.5-1.3,11.5,0.2c4,1.6,6.7,4.1,8,7.6
			C574.9,142.2,574.3,145.9,571.9,149.9z M566.7,172.7c-1,0.4-2,0.4-3,0.1c-1.1-0.3-1.9-1-2.2-2c-0.4-1.1-0.5-2.3-0.2-3.6
			c0.4-1.5,1.2-2.5,2.6-3c1.1-0.4,2.2-0.4,3.2,0.3c0.8,0.5,1.4,1.3,1.7,2.2c0.4,1,0.5,2.1,0.3,3.2
			C568.7,171.3,568,172.3,566.7,172.7z"/>
	</g>
</g>
</svg>
