<?xml version="1.0" encoding="utf-8"?>
<!-- Generator: Adobe Illustrator 19.0.0, SVG Export Plug-In . SVG Version: 6.00 Build 0)  -->
<svg version="1.1" id="Layer_1" xmlns="http://www.w3.org/2000/svg" xmlns:xlink="http://www.w3.org/1999/xlink" x="0px" y="0px"
	 viewBox="0 0 788.5 541.2" style="enable-background:new 0 0 788.5 541.2;" xml:space="preserve">
<style type="text/css">
	.st0{fill:#F0FBFC;}
	.st1{fill:#BC8000;}
	.st2{fill:#FBBF00;}
	.st3{fill:#F1D5BF;}
	.st4{fill:#8BFFF4;}
	.st5{fill:#05BBC9;}
	.st6{fill:#DDDDDD;}
	.st7{fill:#AAAAAA;}
	.st8{fill:#CCCCCC;}
	.st9{fill:#8CFF56;}
	.st10{fill:#B60004;}
	.st11{fill:#FFFFFF;}
	.st12{fill:#A22600;}
	.st13{fill:#873100;}
	.st14{fill:#0090D7;}
</style>
<g id="XMLID_81_">
	<path id="XMLID_107_" class="st0" d="M214.4,119.3c-31.5,12.9-64.4-19.5-98.5-18.2c-14.1,0.5-27.4,6.9-39.6,14
		c-13.6,8-27.2,17.8-33.7,32.3c-12.2,27.3,5.8,58.7,27.4,79.3c16.8,16.1,36.3,29.6,51,47.7s24.3,42.7,16.8,64.8
		c-4.9,14.6-16.5,25.9-23.8,39.5c-5.1,9.4-8,19.9-8.6,30.6c-0.4,6.4,0.3,13.4,4.4,18.3c4.1,4.9,10.7,6.8,17,7.8
		c47.5,7,96.5-27.9,141.9-12.1c26.5,9.2,44.3,33.4,62.8,54.4c8.6,9.8,22.5,20,33.5,12.8c5.1-3.4,7.4-9.5,10.2-14.9
		c17.8-34.6,61.3-48.3,100.2-46.3c38.9,2,76,16,114.5,21.9c7.6,1.2,16.7,1.4,21.4-4.6c3.3-4.2,3.1-10.1,2.9-15.5
		c-1.5-31.8-0.3-66.6,20.3-90.9c13.9-16.4,34.4-25.4,54.1-34.1c12.3-5.4,26.9-15.1,24.2-28.3c-2.6-13.1-19.2-16.3-31.6-21.3
		c-22.7-9.1-38.3-33.6-36.8-58.1c2.2-36.3,37.1-65,37.1-101.4c0-6.8-1.4-13.9-5.5-19.3c-6.7-8.8-19.1-11.5-30.1-9.9
		c-11,1.6-21.1,6.6-31.5,10.4c-46.5,17.1-101.5,9-141.2-20.7c-18.3-13.7-36.7-32.8-59.4-30.3c-20.8,2.3-34.6,21.6-48.5,37.2
		c-13.4,15-29.2,27.9-46.6,37.9c-12,6.9-25.3,12.7-39.1,12.7c-12.8,0-25.1-4.9-37.8-6.5c-12.7-1.6-27.6,1.4-34,12.4"/>
	<g id="XMLID_76_">
		<g id="XMLID_73_">
			<path id="XMLID_75_" class="st1" d="M439.6,145.9c-7.1-11.6-17.9-33.2-18.5-49.2c-0.2-4.2,0-8.5-1.2-12.4c-1.2-3.9-4.2-7.4-7.5-7
				c-1.6,0.2-3.1,1.2-4.6,2.2c-10.4,7.5-20.2,16.2-29.3,25.9c-21.5,20.4-43,40.7-64.5,61.1c-1.1,1.8-2.1,3.8-2.8,5.8
				c13.8,1.5,27.5,2.8,41.3,3.8c8.1,0.6,25.5,2.1,41.4,2.9c18.5,1,44.2,1.7,76.2,0.4C461.6,173.3,449.9,162.8,439.6,145.9z"/>
			<path id="XMLID_74_" class="st2" d="M432.9,151.6c4,6.2,8.5,11.9,13.3,17.1c4.8,5.2,10.3,10.1,16.7,11.1
				c4.3,0.7,8.6-0.5,12.8-1.9c15.5-5.1,30.5-12.8,44.2-22.9c2.1-1.6,4.3-3.2,5.7-5.7c2.8-4.7,2.2-12-1.2-16
				c-1.9-2.1-4.3-3.3-6.7-4.2c-9.2-3.6-18.8-5.2-28.1-8.4c-17-5.9-32.5-17.1-47.7-28.3c-7.5-5.5-15.2-12.3-23.9-14.4
				c-3.3-0.8-8.8-1.5-10.1,2.8c-1.3,4.4,2.5,15.8,3.5,20.2C415.8,119.5,423.1,136.8,432.9,151.6z"/>
		</g>
		<g id="XMLID_72_">
			<path id="XMLID_78_" class="st1" d="M288.1,185.2c-9.8-16.1-24.8-46-25.7-68.2c-0.2-5.8-0.1-11.7-1.7-17.1
				c-1.7-5.4-5.8-10.2-10.4-9.7c-2.3,0.2-4.4,1.7-6.3,3.1c-14.4,10.5-28,22.5-40.6,35.9c-29.8,28.2-59.6,56.4-89.4,84.6
				c-1.5,2.6-2.8,5.2-3.9,8c19.1,2.1,38.1,3.8,57.2,5.3c11.2,0.9,35.3,2.9,57.3,4.1c25.6,1.4,61.3,2.3,105.6,0.5
				C318.7,223.2,302.5,208.6,288.1,185.2z"/>
			<path id="XMLID_77_" class="st2" d="M278.8,193.1c5.6,8.5,11.8,16.5,18.5,23.7c6.7,7.2,14.3,14,23.1,15.4
				c5.9,0.9,11.9-0.7,17.7-2.6c21.5-7,42.2-17.7,61.3-31.8c2.9-2.2,5.9-4.5,7.9-7.9c3.9-6.6,3.1-16.7-1.7-22.2
				c-2.6-2.9-5.9-4.5-9.3-5.8c-12.7-5-26-7.2-38.9-11.6c-23.6-8.1-45-23.7-66.1-39.2c-10.4-7.6-21-17-33.1-19.9
				c-4.5-1.1-12.2-2.1-14,3.9c-1.8,6.1,3.4,21.9,4.9,28.1C255.1,148.6,265.3,172.5,278.8,193.1z"/>
		</g>
	</g>
	<g id="XMLID_79_">
		<path id="XMLID_99_" class="st3" d="M621.1,272.7l38.4,55.5c0.9,1.4,0.6,3.2-0.8,4.2l-7.2,5c-1.4,0.9-3.2,0.6-4.2-0.8L609,281
			c-0.9-1.4-0.6-3.2,0.8-4.2l7.2-5C618.3,271,620.2,271.3,621.1,272.7z"/>
		<path id="XMLID_98_" class="st3" d="M496,302.4"/>
		<path id="XMLID_97_" class="st4" d="M549.3,431L549.3,431c-52.7,0-95.8-43.1-95.8-95.8v-4.9c0-52.7,43.1-95.8,95.8-95.8h0
			c52.7,0,95.8,43.1,95.8,95.8v4.9C645.1,387.9,602,431,549.3,431z"/>
		<path id="XMLID_96_" class="st3" d="M566.5,265.5L566.5,265.5c-32,0-58.2-25.1-58.2-55.7V182c0-30.6,26.2-55.7,58.2-55.7h0
			c32,0,58.2,25.1,58.2,55.7v27.9C624.6,240.5,598.5,265.5,566.5,265.5z"/>
		<circle id="XMLID_95_" cx="533.7" cy="200.3" r="9.8"/>
		<circle id="XMLID_94_" cx="581.3" cy="202.9" r="9.8"/>
		<path id="XMLID_93_" class="st5" d="M537.2,430.4c-3.4-0.4-8.2-1-14.4-2.8c-3.5-1-6-2-10-3.6c-6.8-2.7-10.5-4.2-14.7-6.9
			c-5.4-3.5-8.1-5.2-9-7.6c-2.4-6,4.3-11,16.8-31.3c8.3-13.5,12.7-25.8,15.2-33.8c-8.3,2.4-59.5,16.8-67,2.7c-1-1.8-1.3-4.4-0.2-8.2
			c38.6,9.1,70.3-7.8,75.8-29.1c4.1-15.8-7-31.4-10.6-36c-4.8-4.2-11.9-8.9-21.3-11.1c-7.3-1.6-12.6-0.9-13.3-3.3
			c-0.9-2.9,5.4-8.5,12.3-9.8c4.8-0.9,8.9,0.4,12.5,1.8c12.9,5.4,22.5,15.2,28.3,22.1c3.8,2.4,8.7,5.1,14.7,7.2
			c10.4,3.6,19.7,4,25.8,3.7c16.1-0.5,28.6-5.3,30.9-11.1c1.8-4.5,2-8.2,2-8.2c0-4.1-0.6-6.9,0.4-7.4c0.9-0.4,2.8,1.7,4,3.4
			c4,5.8,3.7,12.7,3.7,13.5c-0.2,6.1,4.8,20.1,26.9,54.8c0,1.1,0,2.8,0,4.9c-0.2,7-0.7,23.9-9.8,42.2c-4.3,8.6-9,14.5-12.2,18.5
			c-3.4,4.2-8,9.9-15.5,15.9c-2.1,1.7-12.1,9.5-27.5,14.8c-11,3.8-20.1,4.8-24.5,5.1C554.8,431,547.1,431.5,537.2,430.4z"/>
		<path id="XMLID_92_" class="st3" d="M508.3,292.4l-4.6,67.3c-0.1,1.6-1.6,2.9-3.2,2.8l-8.7-0.6c-1.6-0.1-2.9-1.6-2.8-3.2l4.6-67.3
			c0.1-1.6,1.6-2.9,3.2-2.8l8.7,0.6C507.1,289.3,508.4,290.8,508.3,292.4z"/>
		<g id="XMLID_83_">
			<path id="XMLID_91_" class="st6" d="M759,331.5c-44,6.4-87.9,12.8-131.9,19.2c-5.5-7.5-10.9-15-16.4-22.5
				c0.4-0.1,1.3-0.2,2.6-0.4c7.6-1.2,13.6-1.8,16.4-2.2c6.7-0.7,50.9-5.4,111.7-11.8c2.4,0.8,6.9,2.7,11.1,7
				C756.4,324.9,758.2,329.1,759,331.5z"/>
			<polygon id="XMLID_90_" class="st7" points="724.6,385.5 759,331.5 627.1,350.7 600,411.7 			"/>
			<path id="XMLID_89_" class="st8" d="M578.7,393.8c0.1-0.6,0.3-1.5,0.7-2.6c0.4-1.2,0.9-2.1,1-2.3c1.3-2.5,17.3-39.2,21.7-49.8
				c0.6-1.6,2.5-6.1,6.9-9.7c0.7-0.6,1.3-1,1.7-1.3c5.5,7.5,10.9,15,16.4,22.5c-9,20.4-18,40.7-27,61.1c-6.6-3.5-13.5-8.5-19.5-15.7
				C579.9,395.4,579.3,394.6,578.7,393.8z"/>
			<path id="XMLID_88_" class="st6" d="M723.2,385.8c-21.8,4.2-43.6,8.4-65.4,12.6c-3.8-5.8-7.6-11.7-11.4-17.5
				c24.4-3.8,48.7-7.6,73.1-11.4c1,1.5,2.6,4.1,3.4,7.7C723.8,380.9,723.5,384,723.2,385.8z"/>
			<path id="XMLID_87_" class="st7" d="M630.5,410.4"/>
			<path id="XMLID_86_" class="st8" d="M646.6,411.7c-5.6-2-11.2-4-16.8-5.9c5.6-8.3,11.1-16.6,16.7-24.9
				c3.9,5.8,7.7,11.7,11.6,17.5C654.3,402.9,650.5,407.3,646.6,411.7z"/>
			<path id="XMLID_85_" class="st7" d="M646.7,411.6c20.2-3.4,40.3-6.8,60.5-10.1c5.3-5.2,10.6-10.4,16-15.7
				c-21.6,4.1-43.2,8.2-64.8,12.3C654.5,402.6,650.6,407.1,646.7,411.6z"/>
			<path id="XMLID_84_" class="st9" d="M725.1,455"/>
		</g>
		<g id="XMLID_66_">
			<path id="XMLID_70_" class="st10" d="M566.3,319.1l-24.4-1.3c-0.4,0-0.7-0.4-0.7-0.7l0.7-12c0-0.4,0.4-0.7,0.7-0.7l24.4,1.3
				c0.4,0,0.7,0.4,0.7,0.7l-0.7,12C567,318.8,566.7,319.1,566.3,319.1z"/>
			<path id="XMLID_69_" class="st11" d="M565.5,317.8l-22.6-1.2c-0.3,0-0.6-0.3-0.5-0.6l0.4-7.8c0-0.3,0.3-0.6,0.6-0.5l22.6,1.2
				c0.3,0,0.6,0.3,0.5,0.6l-0.4,7.8C566.1,317.6,565.8,317.9,565.5,317.8z"/>
			<g id="XMLID_67_">
				<path id="XMLID_68_" d="M544.7,309.8c-0.4,1.5-1.2,3.2-1.3,4.7c0,0.3,0.2,0.5,0.5,0.6c1.7,0.7,3.8-2.3,4.9-3.2
					c-0.4-0.2-0.8-0.3-1.1-0.5c-0.1,0.7-0.3,1.4-0.4,2.1c-0.2,0.8,0.8,1.1,1.2,0.5c0.7-0.7,1.5-1.3,2.2-2c-0.3-0.2-0.7-0.4-1-0.6
					c0.1,0.9,0.2,1.7,0.1,2.6c0,0.5,0.6,0.9,1,0.6c1.5-1,2.3-0.8,4.1-0.6c2.5,0.3,5.1,0.2,7.6,0.2c0.9,0,0.9-1.3,0-1.3
					c-3.1-0.1-6.3-0.4-9.4-0.5c-1.4-0.1-1.7,0.1-3,1c0.3,0.2,0.7,0.4,1,0.6c0.1-0.9,0.1-1.7-0.1-2.6c0-0.5-0.5-0.9-1-0.6
					c-1.1,0.7-1.9,1.4-2.7,2.5c0.4,0.2,0.8,0.3,1.2,0.5c0.4-1.3,0.3-1.1,0.5-2.5c0.1-0.6-0.7-0.8-1.1-0.5c-0.3,0.2-2.5,2.4-2.7,2.2
					c-0.2-0.1,0.7-2.7,0.8-3.1C546.3,309.3,545,309,544.7,309.8L544.7,309.8z"/>
			</g>
		</g>
		<g id="XMLID_34_">
			<path id="XMLID_35_" class="st12" d="M626.8,186.4c1.6-1.1,0.9-5.6-0.4-14.7c-1.8-12.5-2.7-18.8-6.1-24.1
				c-5.2-8.1-15.8-16-21.4-13.1c-5.3,2.8-4.6,14.9-2.7,22.1C601.2,176.2,621.9,189.8,626.8,186.4z"/>
			<path id="XMLID_36_" class="st13" d="M507.1,180.3c-4.9-4.7,1.2-19.6,6.5-28.2c11.7-18.9,33.7-30.4,55.5-31.5
				c8.7-0.4,28.7-1.4,35.5,10.6c5,8.8,1.7,22.6-6.1,30.6c-12.4,12.6-26.9,1.2-61.3,11C519.9,177.9,511.3,184.3,507.1,180.3z"/>
		</g>
	</g>
	<g id="XMLID_188_">
		<path id="XMLID_189_" class="st14" d="M18.6,274.2c-0.6,2.3-1.2,4.3-1.8,6.2c-0.2,0.5-0.5,1.1-0.9,1.6c-0.3,0.4-0.6,0.6-1.1,0.6
			c-0.7,0-1.3-0.7-1.7-2.1c-0.2-0.5-0.3-1.5-0.6-3c-0.1,0.3-0.2,0.4-0.2,0.5c-0.3,0.7-0.7,1.8-1.3,3.3c-0.1,0.2-0.2,0.4-0.4,0.6
			c-0.2,0.4-0.6,0.6-1.1,0.6c-0.3,0-0.6-0.2-0.9-0.7c-0.3-0.5-0.6-1.2-0.8-1.9c-0.2-0.7-0.5-2.3-0.8-4.7c-0.1-0.5-0.1-0.9-0.1-1.2
			c0-0.3,0.1-0.6,0.4-0.8c0.2-0.2,0.5-0.3,0.9-0.3c0.6,0,1,0.3,1.2,0.9c0.1,0.3,0.1,0.7,0.2,1.2c0.1,0.7,0.1,1.1,0.1,1.2
			c0.1,0.5,0.2,1.2,0.3,2.2c0.4-1.2,0.9-2.6,1.5-4.4c0.2-0.8,0.7-1.1,1.3-1.1c0.6,0,1.1,0.4,1.3,1.3c0.1,0.6,0.3,1.4,0.5,2.3
			c0.2,1.4,0.4,2.2,0.4,2.5c0.1-0.2,0.5-1.9,1.4-5.3c0.1-0.5,0.5-0.7,1.1-0.7c0.3,0,0.6,0.1,0.9,0.3c0.3,0.2,0.4,0.5,0.4,0.8
			C18.7,274,18.7,274.1,18.6,274.2z"/>
		<path id="XMLID_191_" class="st14" d="M22.3,273.9c0.4-0.4,0.9-0.7,1.4-0.9s1-0.3,1.6-0.3c1,0,1.7,0.3,2.1,0.8
			c0.3,0.4,0.5,1.1,0.6,1.9c0,0.7,0.1,1.4,0.1,2.1c0.1,0.9,0.2,1.5,0.2,1.7c0.1,0.6,0.2,1.2,0.3,1.7c0,0.1,0,0.2,0,0.3
			c0,0.3-0.1,0.6-0.4,0.8c-0.2,0.2-0.5,0.3-0.9,0.3c-0.6,0-1-0.3-1.1-0.9c-0.1-0.5-0.3-1.1-0.4-2c-0.1-0.8-0.2-1.5-0.2-2
			c0-0.1,0-0.4,0-0.7c0-0.3,0-0.5,0-0.7c0-0.4,0-0.7,0-0.7c-0.1-0.3-0.2-0.5-0.5-0.5c-0.6,0-1.2,0.3-1.7,0.9
			c-0.3,0.3-0.6,0.9-1.1,1.7c0,2.1-0.1,3.4-0.3,3.8c-0.2,0.5-0.6,0.7-1.1,0.7c-0.3,0-0.6-0.1-0.9-0.3c-0.3-0.2-0.4-0.5-0.4-0.8
			c0-0.1,0-0.3,0.1-0.5c0-0.1,0.1-0.9,0.1-2.3c0-1.2,0-3.1,0-5.8l0-0.3c0-0.7,0.1-1.1,0.1-1.4c0-0.2,0-0.4-0.1-0.8
			c-0.1-0.4-0.1-0.6-0.1-0.8c0-0.3,0.1-0.6,0.4-0.8c0.2-0.2,0.5-0.3,0.9-0.3c0.6,0,1,0.3,1.2,0.9c0.1,0.3,0.2,0.9,0.2,1.6
			c0,0.6,0,1.2-0.1,1.8C22.3,272.8,22.3,273.4,22.3,273.9z"/>
		<path id="XMLID_193_" class="st14" d="M37.5,282.4c-0.3,0-0.7-0.3-1.3-0.8c-0.5,0.3-1,0.4-1.4,0.6c-0.4,0.1-0.8,0.2-1,0.2
			c-1.4,0-2.4-0.4-3.1-1.1c-0.7-0.7-1-1.9-1-3.4c0-1.4,0.5-2.6,1.5-3.6c1-1,2.3-1.5,3.7-1.5c0.6,0,1.2,0.2,1.9,0.5
			c0.9,0.4,1.3,0.8,1.3,1.3c0,0.2-0.1,0.4-0.2,0.5c-0.1,0.2-0.1,0.5-0.1,0.9c0,0.3,0,0.8,0,1.2c0,1.1,0.1,1.9,0.2,2.4
			c0,0.1,0.2,0.3,0.4,0.9c0.2,0.5,0.3,0.8,0.3,0.8c0,0.3-0.1,0.6-0.4,0.8C38.1,282.3,37.8,282.4,37.5,282.4z M35.3,276.5
			c0-0.2,0-0.4,0-0.6c0-0.2,0.1-0.5,0.1-0.8c-0.1-0.1-0.2-0.1-0.3-0.1c-0.1,0-0.2,0-0.2,0c-0.8,0-1.5,0.3-2.1,0.9
			c-0.6,0.6-0.9,1.3-0.9,2.1c0,0.8,0.1,1.4,0.4,1.8c0.3,0.4,0.7,0.6,1.3,0.6c0.4,0,0.7-0.1,1-0.2c0.3-0.1,0.6-0.3,0.9-0.5
			C35.4,278.2,35.3,277.2,35.3,276.5z"/>
		<path id="XMLID_233_" class="st14" d="M46,274.9c-0.1,0-0.3,0-0.4,0c-0.2,0-0.3,0-0.4,0c-0.2,0-0.5,0-0.8,0.1
			c0.1,2.3,0.2,3.9,0.2,4.6c0,0.1,0,0.2,0,0.4s0,0.4,0,0.5c0,1.3-0.4,2-1.3,2c-0.3,0-0.6-0.1-0.8-0.3c-0.3-0.2-0.4-0.5-0.4-0.8
			c0-0.2,0-0.5,0-0.9c0-0.4,0-0.7,0-0.9c0-0.7-0.1-2.2-0.2-4.5c-0.4,0-0.9-0.1-1.6-0.1c-0.7-0.1-1.1-0.5-1.1-1.1
			c0-0.3,0.1-0.6,0.3-0.8c0.2-0.2,0.5-0.3,0.9-0.3c0.2,0,0.7,0,1.5,0.1c0-0.2,0-0.5,0-0.9c0-0.4,0-0.7,0-0.9c0-0.3,0.1-0.6,0.4-0.8
			c0.2-0.2,0.5-0.3,0.9-0.3c0.9,0,1.3,0.7,1.3,2.2l0,0.7c0.4-0.1,0.7-0.1,0.9-0.1c0.7,0,1.1,0,1.4,0.1c0.5,0.2,0.7,0.5,0.7,1.1
			c0,0.3-0.1,0.6-0.3,0.8C46.7,274.8,46.4,274.9,46,274.9z"/>
		<path id="XMLID_253_" class="st14" d="M63.3,282.2c-0.5,0-0.8-0.2-1-0.7c-0.3-0.5-0.7-1.2-1.3-1.9c-0.9-1.1-1.3-1.7-1.4-1.8
			c-0.5,0.3-0.8,0.6-1.1,0.8c-0.1,0.8-0.1,1.6-0.1,2.3c0,0.3-0.1,0.6-0.3,0.8c-0.2,0.2-0.5,0.3-0.9,0.3c-0.8,0-1.2-0.5-1.2-1.5
			c0-0.5,0-1.1,0.1-2.1c0.1-0.9,0.1-1.6,0.1-2.1c0-0.8,0-1.8,0-2.9c0-1.1,0-2,0-2.9c0-0.3,0-0.5,0-0.9c0-0.3,0-0.6,0-0.9
			c0-0.3,0.1-0.6,0.3-0.8c0.2-0.2,0.5-0.3,0.9-0.3c0.3,0,0.6,0.1,0.9,0.3c0.2,0.2,0.3,0.5,0.3,0.8c0,0.3,0,0.6,0,0.9
			c0,0.3,0,0.6,0,0.9c0,0.7,0,1.5-0.1,2.5c0,0.9,0,1.7,0,2.4c0.8-0.6,2-1.7,3.6-3.3c0.3-0.3,0.5-0.4,0.9-0.4c0.3,0,0.6,0.1,0.9,0.4
			c0.2,0.2,0.4,0.5,0.4,0.8c0,0.3-0.1,0.5-0.3,0.8c-0.7,0.8-1.5,1.6-2.4,2.4l1.8,2.3c0.9,1.2,1.3,1.9,1.3,2.3c0,0.3-0.1,0.6-0.4,0.8
			C63.9,282.1,63.7,282.2,63.3,282.2z"/>
		<path id="XMLID_255_" class="st14" d="M68.4,277.8c0,0.3,0,0.9,0,1.6c0,0.7,0,1.3,0,1.6c0,0.3-0.1,0.6-0.3,0.8
			c-0.2,0.2-0.5,0.3-0.9,0.3s-0.6-0.1-0.9-0.3S66,281.3,66,281c0-0.3,0-0.9,0-1.6c0-0.7,0-1.3,0-1.6c0-0.5,0-1.2,0.1-1.9
			c0.1-0.8,0.1-1.4,0.1-1.9c0-0.3,0.1-0.6,0.3-0.8c0.2-0.2,0.5-0.3,0.9-0.3c0.3,0,0.6,0.1,0.9,0.3c0.2,0.2,0.3,0.5,0.3,0.8
			c0,0.5,0,1.2-0.1,1.9C68.4,276.6,68.4,277.3,68.4,277.8z M67.6,271.4c-0.4,0-0.7-0.1-1-0.4c-0.3-0.3-0.4-0.6-0.4-0.9
			c0-0.4,0.1-0.7,0.4-0.9s0.6-0.4,1-0.4c0.4,0,0.7,0.1,1,0.4s0.4,0.6,0.4,0.9c0,0.4-0.1,0.7-0.4,0.9C68.3,271.3,68,271.4,67.6,271.4
			z"/>
		<path id="XMLID_258_" class="st14" d="M77.5,282.5c-0.7,0-1.1-0.4-1.2-1.1c-0.1-0.6-0.2-1.2-0.2-1.8c-0.1-0.6-0.1-1.2-0.1-1.8
			c0-0.2,0-0.4,0-0.8s0-0.6,0-0.8c0,0,0-0.1,0-0.3s0-0.3,0-0.4c0-0.5-0.1-0.7-0.3-0.7c-0.5,0-1,0.3-1.5,1c-0.5,0.6-0.9,1.4-1.1,2.4
			c0,0.2,0,0.5-0.1,0.8c0,0.3,0,0.5,0,0.8c0,0.2,0,0.4-0.1,0.8s-0.1,0.6-0.1,0.8c0,0.3-0.1,0.6-0.3,0.8c-0.2,0.2-0.5,0.3-0.9,0.3
			s-0.6-0.1-0.9-0.3s-0.3-0.5-0.3-0.8c0-0.2,0-0.4-0.1-0.7c0-0.3-0.1-0.6-0.1-0.7c0-0.6,0-1.4,0.1-2.4c0.1-1,0.1-1.8,0.1-2.4
			c0-0.2,0-0.4,0-0.8s0-0.6,0-0.8c0-0.3,0.1-0.6,0.4-0.8c0.2-0.2,0.5-0.3,0.9-0.3c0.8,0,1.2,0.5,1.2,1.4l0,0.1
			c0.8-0.9,1.7-1.3,2.7-1.3c1.1,0,1.9,0.5,2.3,1.4c0.3,0.6,0.4,1.5,0.4,2.8v0.6c0,0.3,0,0.5,0,0.6c0,0.5,0.1,1,0.2,1.7
			c0.1,0.7,0.2,1.3,0.2,1.7c0,0.3-0.1,0.6-0.3,0.8C78.1,282.4,77.8,282.5,77.5,282.5z"/>
		<path id="XMLID_260_" class="st14" d="M86.3,273.1c0.1-2,0.2-3.3,0.3-4.1c0.1-0.7,0.5-1,1.1-1c0.3,0,0.6,0.1,0.8,0.3
			c0.2,0.2,0.3,0.5,0.3,0.8c0,0.8-0.1,2.1-0.2,3.8c-0.1,1.7-0.2,2.9-0.2,3.8c0,2.1,0.1,3.5,0.2,4.2c0,0.1,0,0.2,0,0.3
			c0,0.3-0.1,0.6-0.3,0.8c-0.2,0.2-0.5,0.3-0.8,0.3c-0.4,0-0.7-0.2-1-0.6c-0.4,0.2-0.8,0.4-1.2,0.5c-0.4,0.1-0.9,0.1-1.3,0.1
			c-1.3,0-2.4-0.4-3.2-1.2c-0.9-0.8-1.3-1.9-1.3-3.2c0-1.6,0.4-2.8,1.3-3.8c0.9-1,2-1.4,3.5-1.4c0.4,0,0.8,0,1.2,0.1
			C85.8,272.8,86.1,273,86.3,273.1z M86.1,275.9c-0.2-0.4-0.4-0.6-0.7-0.8s-0.7-0.3-1.1-0.3c-0.9,0-1.5,0.2-1.9,0.7
			c-0.4,0.5-0.6,1.2-0.6,2.2c0,0.6,0.2,1.2,0.7,1.6c0.5,0.4,1,0.7,1.6,0.7c0.4,0,0.8-0.1,1-0.2c0.2-0.1,0.4-0.3,0.8-0.6
			c0.1-0.1,0.2-0.2,0.3-0.3C86.1,278.8,86.1,277.7,86.1,275.9z"/>
		<path id="XMLID_263_" class="st14" d="M101.7,282.4c-1.1,0-2-0.4-2.8-1.1c-0.8-0.8-1.3-1.9-1.3-3.2c0-1.3,0.3-2.4,1.1-3.4
			c0.9-1.2,2.1-1.8,3.7-1.8c1.2,0,2.1,0.5,2.8,1.4c0.6,0.8,0.9,1.9,0.9,3.1c0,1.3-0.4,2.5-1.1,3.4
			C104.2,281.9,103.1,282.4,101.7,282.4z M102.2,275.2c-0.7,0-1.3,0.3-1.7,1c-0.3,0.6-0.5,1.2-0.5,1.9c0,0.7,0.2,1.2,0.6,1.6
			c0.3,0.3,0.7,0.4,1.1,0.4c0.5,0,0.9-0.2,1.3-0.5c0.4-0.4,0.6-0.9,0.7-1.6C103.8,276.1,103.3,275.2,102.2,275.2z"/>
		<path id="XMLID_266_" class="st14" d="M111.6,273c0.8-0.1,1.3-0.1,1.7-0.1c1.1,0,1.6,0.4,1.6,1.1c0,0.8-0.6,1.1-1.7,1.1
			c-0.4,0-0.9,0-1.7,0.1c0,0.6,0,1.4,0,2.3c0,1.4,0,2.1,0,2.3c0,1.1-0.1,1.9-0.2,2.5c-0.1,0.6-0.5,0.9-1.1,0.9
			c-0.3,0-0.6-0.1-0.8-0.3c-0.2-0.2-0.4-0.5-0.4-0.8c0-0.1,0-0.1,0-0.2c0.1-0.8,0.2-1.6,0.2-2.3v-4.3c-0.1,0-0.3,0-0.6,0.1
			c-0.2,0-0.4,0-0.5,0c-0.4,0-0.6-0.1-0.9-0.3c-0.2-0.2-0.3-0.5-0.3-0.8c0-0.5,0.3-0.9,0.9-1.1c0.3-0.1,0.8-0.1,1.5-0.1
			c0-0.1,0-0.4,0.1-1c0.2-1.3,0.5-2.3,1.1-2.9c0.7-0.8,1.7-1.2,3.1-1.2c1.1,0,1.6,0.4,1.6,1.1c0,0.8-0.5,1.1-1.5,1.1
			c-0.7,0-1.2,0.2-1.5,0.7c-0.2,0.4-0.4,0.9-0.5,1.7L111.6,273z"/>
		<path id="XMLID_268_" class="st14" d="M126.5,274.2c0.9-1,1.7-1.5,2.5-1.5c0.9,0,1.5,0.3,2,1c0.4-0.3,0.7-0.5,1.2-0.7
			c0.4-0.2,0.9-0.2,1.4-0.2c1.1,0,1.9,0.6,2.3,1.7c0.1,0.2,0.2,1,0.4,2.4c0.2,0.9,0.4,2.5,0.6,4.7c0,0.3-0.1,0.6-0.3,0.8
			c-0.3,0.2-0.5,0.3-0.9,0.3c-0.7,0-1.1-0.3-1.2-1c-0.1-0.6-0.2-1.4-0.3-2.5c-0.1-1.2-0.2-2-0.3-2.5c-0.2-1-0.4-1.6-0.6-1.6
			c-0.1,0-0.4,0.1-0.9,0.4c-0.5,0.3-0.8,0.5-1,0.7c0,0.7,0.1,1.6,0.2,2.9c0.2,1.3,0.2,2.2,0.2,2.9c0,0.3-0.1,0.6-0.3,0.8
			c-0.2,0.2-0.5,0.3-0.9,0.3c-0.3,0-0.6-0.1-0.9-0.3s-0.3-0.5-0.3-0.8c0-0.7-0.1-1.6-0.2-2.9c-0.1-1.3-0.2-2.3-0.2-2.9
			c0-0.4,0-0.7-0.1-0.9c-0.7,0.4-1.3,1-2,1.9c0,0-0.1,0.1-0.1,0.2c0,1.2,0,2.1,0,2.8c0,0.2,0,0.4,0,0.7c0,0.3,0,0.5,0,0.6
			c0,0.3-0.1,0.6-0.4,0.7c-0.2,0.2-0.5,0.3-0.9,0.3c-0.5,0-0.8-0.2-1-0.6c-0.1-0.3-0.2-0.8-0.2-1.4V277c0-0.3,0-0.7,0-1.3s0-1,0-1.3
			c0-0.5,0.1-1,0.3-1.4c0.2-0.5,0.5-0.8,1-0.8c0.3,0,0.6,0.1,0.9,0.4c0.3,0.3,0.4,0.5,0.4,0.8C126.6,273.3,126.6,273.6,126.5,274.2z
			"/>
		<path id="XMLID_270_" class="st14" d="M145.6,282.4c-0.3,0-0.7-0.3-1.3-0.8c-0.5,0.3-1,0.4-1.4,0.6c-0.4,0.1-0.8,0.2-1,0.2
			c-1.4,0-2.4-0.4-3.1-1.1c-0.7-0.7-1-1.9-1-3.4c0-1.4,0.5-2.6,1.5-3.6c1-1,2.3-1.5,3.7-1.5c0.6,0,1.2,0.2,1.9,0.5
			c0.9,0.4,1.3,0.8,1.3,1.3c0,0.2-0.1,0.4-0.2,0.5c-0.1,0.2-0.1,0.5-0.1,0.9c0,0.3,0,0.8,0,1.2c0,1.1,0.1,1.9,0.2,2.4
			c0,0.1,0.2,0.3,0.4,0.9c0.2,0.5,0.3,0.8,0.3,0.8c0,0.3-0.1,0.6-0.4,0.8C146.2,282.3,145.9,282.4,145.6,282.4z M143.5,276.5
			c0-0.2,0-0.4,0-0.6c0-0.2,0.1-0.5,0.1-0.8c-0.1-0.1-0.2-0.1-0.3-0.1c-0.1,0-0.2,0-0.2,0c-0.8,0-1.5,0.3-2.1,0.9
			c-0.6,0.6-0.9,1.3-0.9,2.1c0,0.8,0.1,1.4,0.4,1.8c0.3,0.4,0.7,0.6,1.3,0.6c0.4,0,0.7-0.1,1-0.2c0.3-0.1,0.6-0.3,0.9-0.5
			C143.6,278.2,143.5,277.2,143.5,276.5z"/>
		<path id="XMLID_273_" class="st14" d="M156.1,276.7c-0.2,1.4-0.4,2.8-0.4,4.3c-0.1,1.9-0.4,3.2-0.9,4.1c-0.8,1.1-2.1,1.7-4,1.7
			c-2.3,0-3.4-0.4-3.4-1.3c0-0.3,0.1-0.6,0.3-0.8s0.5-0.3,0.8-0.3c0.3,0,0.6,0,1.1,0.1s0.9,0.1,1.3,0.1c0.9,0,1.5-0.3,1.9-0.8
			c0.4-0.5,0.6-1.3,0.7-2.5c-0.3,0.3-0.6,0.5-1,0.7c-0.4,0.2-0.8,0.2-1.2,0.2c-1.2,0-2.1-0.4-2.8-1.1c-0.7-0.8-1.1-1.7-1.1-2.9
			c0-1.6,0.5-2.9,1.4-3.8c1-1,2.3-1.5,4-1.5c0.5,0,1,0.1,1.4,0.2c0.4,0.1,0.7,0.3,1,0.6c0.7,0.1,1.1,0.5,1.1,1.3
			C156.3,275.5,156.2,276,156.1,276.7z M152.7,275c-1,0-1.7,0.3-2.3,1c-0.5,0.6-0.7,1.3-0.7,2.3c0,0.7,0.1,1.2,0.4,1.6
			c0.3,0.3,0.7,0.5,1.2,0.5c0.5,0,1-0.3,1.4-0.8c0.5-0.5,0.7-1,0.8-1.5c0.1-0.6,0.2-1.4,0.4-2.6c-0.2-0.1-0.4-0.2-0.6-0.3
			C153.1,275,152.9,275,152.7,275z"/>
		<path id="XMLID_276_" class="st14" d="M160.2,277.8c0,0.3,0,0.9,0,1.6c0,0.7,0,1.3,0,1.6c0,0.3-0.1,0.6-0.3,0.8
			c-0.2,0.2-0.5,0.3-0.9,0.3s-0.6-0.1-0.9-0.3c-0.2-0.2-0.3-0.5-0.3-0.8c0-0.3,0-0.9,0-1.6c0-0.7,0-1.3,0-1.6c0-0.5,0-1.2,0.1-1.9
			c0.1-0.8,0.1-1.4,0.1-1.9c0-0.3,0.1-0.6,0.3-0.8c0.2-0.2,0.5-0.3,0.9-0.3c0.3,0,0.6,0.1,0.9,0.3c0.2,0.2,0.3,0.5,0.3,0.8
			c0,0.5,0,1.2-0.1,1.9C160.2,276.6,160.2,277.3,160.2,277.8z M159.5,271.4c-0.4,0-0.7-0.1-1-0.4c-0.3-0.3-0.4-0.6-0.4-0.9
			c0-0.4,0.1-0.7,0.4-0.9c0.3-0.2,0.6-0.4,1-0.4c0.4,0,0.7,0.1,1,0.4s0.4,0.6,0.4,0.9c0,0.4-0.1,0.7-0.4,0.9
			C160.2,271.3,159.8,271.4,159.5,271.4z"/>
		<path id="XMLID_279_" class="st14" d="M166.5,282.4c-1.3,0-2.3-0.4-3.2-1.1c-0.9-0.8-1.4-1.8-1.4-3c0-1.2,0.4-2.3,1.2-3.6
			c0.9-1.4,2-2.1,3.2-2.1c0.6,0,1.3,0.2,2.1,0.5c1,0.4,1.5,0.9,1.5,1.4c0,0.3-0.1,0.5-0.3,0.8c-0.2,0.2-0.5,0.4-0.8,0.4
			c-0.2,0-0.5-0.1-0.9-0.4s-0.9-0.4-1.6-0.4c-0.4,0-0.9,0.4-1.5,1.3c-0.5,0.8-0.7,1.6-0.7,2.2c0,0.6,0.2,1.1,0.7,1.4
			c0.4,0.3,1,0.5,1.7,0.5c0.4,0,0.9-0.1,1.4-0.4s0.9-0.4,1.1-0.4c0.3,0,0.6,0.1,0.8,0.3c0.2,0.2,0.3,0.5,0.3,0.8
			c0,0.5-0.5,0.9-1.5,1.4C167.8,282.2,167,282.4,166.5,282.4z"/>
		<path id="XMLID_281_" class="st14" d="M-8.2,303.8c-1.3,0-2.3-0.4-3.2-1.1c-0.9-0.8-1.4-1.8-1.4-3c0-1.2,0.4-2.3,1.2-3.6
			c0.9-1.4,2-2.1,3.2-2.1c0.6,0,1.3,0.2,2.1,0.5c1,0.4,1.5,0.9,1.5,1.4c0,0.3-0.1,0.5-0.3,0.8c-0.2,0.2-0.5,0.4-0.8,0.4
			c-0.2,0-0.5-0.1-0.9-0.4s-0.9-0.4-1.6-0.4c-0.4,0-0.9,0.4-1.5,1.3c-0.5,0.8-0.7,1.6-0.7,2.2c0,0.6,0.2,1.1,0.7,1.4
			c0.4,0.3,1,0.5,1.7,0.5c0.4,0,0.9-0.1,1.4-0.4s0.9-0.4,1.1-0.4c0.3,0,0.6,0.1,0.8,0.3c0.2,0.2,0.3,0.5,0.3,0.8
			c0,0.5-0.5,0.9-1.5,1.4C-7,303.6-7.7,303.8-8.2,303.8z"/>
		<path id="XMLID_283_" class="st14" d="M4.4,303.7c-0.3,0-0.7-0.3-1.3-0.8c-0.5,0.3-1,0.4-1.4,0.6c-0.4,0.1-0.8,0.2-1,0.2
			c-1.4,0-2.4-0.4-3.1-1.1s-1-1.9-1-3.4c0-1.4,0.5-2.6,1.5-3.6c1-1,2.3-1.5,3.7-1.5c0.6,0,1.2,0.2,1.9,0.5C4.5,295,5,295.5,5,296
			c0,0.2-0.1,0.4-0.2,0.5c-0.1,0.2-0.1,0.5-0.1,0.9c0,0.3,0,0.8,0,1.2c0,1.1,0.1,1.9,0.2,2.4c0,0.1,0.2,0.3,0.4,0.9
			c0.2,0.5,0.3,0.8,0.3,0.8c0,0.3-0.1,0.6-0.4,0.8C5,303.6,4.7,303.7,4.4,303.7z M2.3,297.9c0-0.2,0-0.4,0-0.6
			c0-0.2,0.1-0.5,0.1-0.8c-0.1-0.1-0.2-0.1-0.3-0.1c-0.1,0-0.2,0-0.2,0c-0.8,0-1.5,0.3-2.1,0.9c-0.6,0.6-0.9,1.3-0.9,2.1
			c0,0.8,0.1,1.4,0.4,1.8c0.3,0.4,0.7,0.6,1.3,0.6c0.4,0,0.7-0.1,1-0.2c0.3-0.1,0.6-0.3,0.9-0.5C2.3,299.6,2.3,298.6,2.3,297.9z"/>
		<path id="XMLID_286_" class="st14" d="M14.1,297c-0.1,0.9-0.5,1.3-1.2,1.3c-0.7,0-1.1-0.4-1.1-1.1l0-0.9c-1.3,0.2-2.2,0.9-2.8,2
			l0,4.4c0,0.3-0.1,0.6-0.3,0.8c-0.2,0.2-0.5,0.3-0.9,0.3c-0.4,0-0.6-0.1-0.8-0.3c-0.2-0.2-0.3-0.5-0.3-0.8V297c0-0.2,0-0.4,0-0.8
			c0-0.4,0-0.6,0-0.8c0-0.3,0.1-0.6,0.3-0.8c0.2-0.2,0.5-0.3,0.8-0.3c0.6,0,1,0.3,1.1,1c1-0.8,2.2-1.1,3.4-1.1
			c1.2,0,1.7,0.8,1.7,2.3C14.1,296.7,14.1,296.9,14.1,297z"/>
		<path id="XMLID_288_" class="st14" d="M19.4,303.8c-0.5,0-1-0.1-1.6-0.2l0,3.5c0,0.3-0.1,0.6-0.3,0.8c-0.2,0.2-0.5,0.3-0.9,0.3
			c-0.3,0-0.6-0.1-0.9-0.3c-0.2-0.2-0.3-0.5-0.3-0.8c0-0.3,0-1.4,0-3.2c0-1.4,0-2.5,0-3.4c0-1.3-0.1-2.3-0.1-3.2
			c-0.1-1.2-0.1-1.8-0.1-1.7c0-0.5,0.1-0.9,0.3-1.2c0.3-0.4,0.6-0.6,1-0.6c0.3,0,0.6,0.1,0.8,0.3s0.3,0.5,0.3,0.8l0,0.1
			c0.4-0.2,0.8-0.4,1.2-0.5s0.8-0.2,1.2-0.2c1.3,0,2.3,0.6,2.9,1.7c0.5,0.9,0.7,2,0.7,3.3c0,1.3-0.4,2.3-1.1,3.2
			C21.7,303.3,20.7,303.8,19.4,303.8z M20,296.6c-0.4,0-0.7,0.1-1.1,0.3c-0.4,0.2-0.8,0.4-1.1,0.8c0.1,1.2,0.1,2.4,0.1,3.6
			c0.5,0.2,1,0.3,1.5,0.3c0.6,0,1.1-0.2,1.4-0.6c0.3-0.4,0.4-0.9,0.4-1.5c0-0.8,0-1.3-0.1-1.6C20.9,296.9,20.6,296.6,20,296.6z"/>
		<path id="XMLID_291_" class="st14" d="M29.3,303.7c-1.4,0-2.5-0.3-3.4-1c-1-0.7-1.5-1.8-1.5-3.1c0-1.5,0.4-2.7,1.2-3.7
			c0.9-1.1,2-1.7,3.5-1.7c1,0,1.8,0.2,2.5,0.5c0.9,0.4,1.3,1.1,1.3,2c0,0.6-0.4,1.2-1.1,1.7c-0.3,0.2-1,0.6-2,1l-2.9,1.3
			c0.3,0.3,0.6,0.5,1,0.7c0.4,0.2,0.8,0.2,1.4,0.2c0.8,0,1.4-0.2,2-0.5c0.5-0.3,0.9-0.4,1.2-0.4c0.6,0,0.9,0.3,0.9,0.9
			c0,0.7-0.5,1.2-1.5,1.6C31,303.5,30.2,303.7,29.3,303.7z M29,296.3c-0.5,0-1,0.2-1.4,0.5c-0.4,0.4-0.7,0.9-0.9,1.6
			c0.7-0.3,1.3-0.6,2-0.8c0.8-0.4,1.4-0.7,1.9-1C30.2,296.4,29.7,296.3,29,296.3z"/>
		<path id="XMLID_294_" class="st14" d="M41,296.3c-0.1,0-0.3,0-0.4,0c-0.2,0-0.3,0-0.4,0c-0.2,0-0.5,0-0.8,0.1
			c0.1,2.3,0.2,3.9,0.2,4.6c0,0.1,0,0.2,0,0.4s0,0.4,0,0.5c0,1.3-0.4,2-1.3,2c-0.3,0-0.6-0.1-0.8-0.3c-0.3-0.2-0.4-0.5-0.4-0.8
			c0-0.2,0-0.5,0-0.9c0-0.4,0-0.7,0-0.9c0-0.7-0.1-2.2-0.2-4.5c-0.4,0-0.9-0.1-1.6-0.1c-0.7-0.1-1.1-0.5-1.1-1.1
			c0-0.3,0.1-0.6,0.3-0.8c0.2-0.2,0.5-0.3,0.9-0.3c0.2,0,0.7,0,1.5,0.1c0-0.2,0-0.5,0-0.9c0-0.4,0-0.7,0-0.9c0-0.3,0.1-0.6,0.4-0.8
			c0.2-0.2,0.5-0.3,0.9-0.3c0.9,0,1.3,0.7,1.3,2.2l0,0.7c0.4-0.1,0.7-0.1,0.9-0.1c0.7,0,1.1,0,1.4,0.1c0.5,0.2,0.7,0.5,0.7,1.1
			c0,0.3-0.1,0.6-0.3,0.8C41.6,296.2,41.3,296.3,41,296.3z"/>
		<path id="XMLID_296_" class="st14" d="M55.1,303.6c-0.8,0-1.6-0.1-2.3-0.4c-0.2,0.2-0.5,0.3-0.8,0.3c-0.3,0-0.6-0.1-0.8-0.3
			c-0.2-0.2-0.3-0.5-0.3-0.8c0-0.1,0-0.4,0-0.6c0-0.3,0-0.5,0-0.6v-9.9c0-0.4,0.1-0.8,0.3-1.1c0.2-0.4,0.6-0.6,1-0.6
			c0.6,0,0.9,0.3,0.9,1c0,0.1,0,0.2,0,0.4c0,0.2,0,0.3,0,0.4v3.3c0.4-0.2,0.8-0.4,1.2-0.5c0.4-0.1,0.8-0.2,1.1-0.2
			c1.4,0,2.5,0.5,3.3,1.5c0.8,0.9,1.2,2.1,1.2,3.4c0,1.3-0.5,2.5-1.4,3.4C57.6,303.2,56.5,303.6,55.1,303.6z M55.4,296.1
			c-0.3,0-0.6,0.1-1,0.3s-0.8,0.4-1.3,0.8c0,0.6,0,1.8,0,3.7c0.8,0.3,1.5,0.5,2,0.5c0.7,0,1.3-0.2,1.8-0.7c0.5-0.5,0.7-1.1,0.7-1.9
			s-0.2-1.4-0.6-1.9C56.6,296.4,56.1,296.1,55.4,296.1z"/>
		<path id="XMLID_299_" class="st14" d="M68.8,297c-0.1,0.9-0.5,1.3-1.2,1.3c-0.7,0-1.1-0.4-1.1-1.1l0-0.9c-1.3,0.2-2.2,0.9-2.8,2
			l0,4.4c0,0.3-0.1,0.6-0.3,0.8c-0.2,0.2-0.5,0.3-0.9,0.3c-0.4,0-0.6-0.1-0.8-0.3c-0.2-0.2-0.3-0.5-0.3-0.8V297c0-0.2,0-0.4,0-0.8
			c0-0.4,0-0.6,0-0.8c0-0.3,0.1-0.6,0.3-0.8c0.2-0.2,0.5-0.3,0.8-0.3c0.6,0,1,0.3,1.1,1c1-0.8,2.2-1.1,3.4-1.1
			c1.2,0,1.7,0.8,1.7,2.3C68.8,296.7,68.8,296.9,68.8,297z"/>
		<path id="XMLID_301_" class="st14" d="M73.7,303.8c-1.1,0-2-0.4-2.8-1.1c-0.8-0.8-1.3-1.9-1.3-3.2c0-1.3,0.3-2.4,1.1-3.4
			c0.9-1.2,2.1-1.8,3.7-1.8c1.2,0,2.1,0.5,2.8,1.4c0.6,0.8,0.9,1.9,0.9,3.1c0,1.3-0.4,2.5-1.1,3.4C76.1,303.2,75,303.8,73.7,303.8z
			 M74.2,296.5c-0.7,0-1.3,0.3-1.7,1c-0.3,0.6-0.5,1.2-0.5,1.9c0,0.7,0.2,1.2,0.6,1.6c0.3,0.3,0.7,0.4,1.1,0.4
			c0.5,0,0.9-0.2,1.3-0.5c0.4-0.4,0.6-0.9,0.7-1.6C75.7,297.5,75.3,296.5,74.2,296.5z"/>
		<path id="XMLID_304_" class="st14" d="M87.1,298.2c0,0.4,0,1,0,1.8c0,0.8,0,1.4,0,1.8c0,0.1,0,0.3,0,0.5c0,0.2,0,0.4,0,0.5
			c0,0.3-0.1,0.6-0.4,0.8c-0.2,0.2-0.5,0.3-0.9,0.3c-0.5,0-0.8-0.2-1.1-0.7c-0.7,0.3-1.5,0.4-2.3,0.4c-0.8,0-1.5-0.2-2.1-0.5
			c-0.6-0.4-1-1-1.1-1.7c-0.2-1.4-0.3-2.7-0.3-3.9c0-0.7,0.1-1.6,0.3-2.6c0.1-0.7,0.5-1,1.2-1c0.3,0,0.6,0.1,0.9,0.3
			c0.2,0.2,0.4,0.5,0.4,0.8c0,0.3,0,0.7-0.1,1.2c-0.1,0.5-0.1,1-0.1,1.2c0,0.8,0,1.5,0.1,2.1c0.1,0.6,0.1,1.1,0.2,1.5
			c0.1,0.1,0.3,0.1,0.4,0.1c0.1,0,0.3,0.1,0.4,0.1c0.6,0,1.4-0.1,2.1-0.3c0-0.4,0-1,0-1.5c0-0.7,0-1.2,0-1.5c0-1.2,0.1-2.2,0.2-3.1
			c0.1-0.7,0.5-1,1.2-1c0.3,0,0.6,0.1,0.9,0.3c0.2,0.2,0.4,0.5,0.3,0.8C87.1,297.4,87.1,298.4,87.1,298.2z"/>
		<path id="XMLID_306_" class="st14" d="M96.8,298.1c-0.2,1.4-0.4,2.8-0.4,4.3c-0.1,1.9-0.4,3.2-0.9,4.1c-0.8,1.1-2.1,1.7-4,1.7
			c-2.3,0-3.4-0.4-3.4-1.3c0-0.3,0.1-0.6,0.3-0.8s0.5-0.3,0.8-0.3c0.3,0,0.6,0,1.1,0.1s0.9,0.1,1.3,0.1c0.9,0,1.5-0.3,1.9-0.8
			c0.4-0.5,0.6-1.3,0.7-2.5c-0.3,0.3-0.6,0.5-1,0.7c-0.4,0.2-0.8,0.2-1.2,0.2c-1.2,0-2.1-0.4-2.8-1.1c-0.7-0.8-1.1-1.7-1.1-2.9
			c0-1.6,0.5-2.9,1.4-3.8c1-1,2.3-1.5,4-1.5c0.5,0,1,0.1,1.4,0.2c0.4,0.1,0.7,0.3,1,0.6c0.7,0.1,1.1,0.5,1.1,1.3
			C97,296.9,96.9,297.4,96.8,298.1z M93.4,296.3c-1,0-1.7,0.3-2.3,1c-0.5,0.6-0.7,1.3-0.7,2.3c0,0.7,0.1,1.2,0.4,1.6
			c0.3,0.3,0.7,0.5,1.2,0.5c0.5,0,1-0.3,1.4-0.8c0.5-0.5,0.7-1,0.8-1.5c0.1-0.6,0.2-1.4,0.4-2.6c-0.2-0.1-0.4-0.2-0.6-0.3
			C93.8,296.4,93.6,296.3,93.4,296.3z"/>
		<path id="XMLID_309_" class="st14" d="M100.8,295.3c0.4-0.4,0.9-0.7,1.4-0.9s1-0.3,1.6-0.3c1,0,1.7,0.3,2.1,0.8
			c0.3,0.4,0.5,1.1,0.6,1.9c0,0.7,0.1,1.4,0.1,2.1c0.1,0.9,0.2,1.5,0.2,1.7c0.1,0.6,0.2,1.2,0.3,1.7c0,0.1,0,0.2,0,0.3
			c0,0.3-0.1,0.6-0.4,0.8c-0.2,0.2-0.5,0.3-0.9,0.3c-0.6,0-1-0.3-1.1-0.9c-0.1-0.5-0.3-1.1-0.4-2c-0.1-0.8-0.2-1.5-0.2-2
			c0-0.1,0-0.4,0-0.7c0-0.3,0-0.5,0-0.7c0-0.4,0-0.7,0-0.7c-0.1-0.3-0.2-0.5-0.5-0.5c-0.6,0-1.2,0.3-1.7,0.9
			c-0.3,0.3-0.6,0.9-1.1,1.7c0,2.1-0.1,3.4-0.3,3.8c-0.2,0.5-0.6,0.7-1.1,0.7c-0.3,0-0.6-0.1-0.9-0.3c-0.3-0.2-0.4-0.5-0.4-0.8
			c0-0.1,0-0.3,0.1-0.5c0-0.1,0.1-0.9,0.1-2.3c0-1.2,0-3.1,0-5.8l0-0.3c0-0.7,0.1-1.1,0.1-1.4c0-0.2,0-0.4-0.1-0.8
			c-0.1-0.4-0.1-0.6-0.1-0.8c0-0.3,0.1-0.6,0.4-0.8c0.2-0.2,0.5-0.3,0.9-0.3c0.6,0,1,0.3,1.2,0.9c0.1,0.3,0.2,0.9,0.2,1.6
			c0,0.6,0,1.2-0.1,1.8C100.8,294.2,100.8,294.8,100.8,295.3z"/>
		<path id="XMLID_311_" class="st14" d="M114.6,296.3c-0.1,0-0.3,0-0.4,0c-0.2,0-0.3,0-0.4,0c-0.2,0-0.5,0-0.8,0.1
			c0.1,2.3,0.2,3.9,0.2,4.6c0,0.1,0,0.2,0,0.4s0,0.4,0,0.5c0,1.3-0.4,2-1.3,2c-0.3,0-0.6-0.1-0.8-0.3c-0.3-0.2-0.4-0.5-0.4-0.8
			c0-0.2,0-0.5,0-0.9c0-0.4,0-0.7,0-0.9c0-0.7-0.1-2.2-0.2-4.5c-0.4,0-0.9-0.1-1.6-0.1c-0.7-0.1-1.1-0.5-1.1-1.1
			c0-0.3,0.1-0.6,0.3-0.8c0.2-0.2,0.5-0.3,0.9-0.3c0.2,0,0.7,0,1.5,0.1c0-0.2,0-0.5,0-0.9c0-0.4,0-0.7,0-0.9c0-0.3,0.1-0.6,0.4-0.8
			c0.2-0.2,0.5-0.3,0.9-0.3c0.9,0,1.3,0.7,1.3,2.2l0,0.7c0.4-0.1,0.7-0.1,0.9-0.1c0.7,0,1.1,0,1.4,0.1c0.5,0.2,0.7,0.5,0.7,1.1
			c0,0.3-0.1,0.6-0.3,0.8C115.3,296.2,115,296.3,114.6,296.3z"/>
		<path id="XMLID_313_" class="st14" d="M132.2,298.2c0,0.4,0,1,0,1.8c0,0.8,0,1.4,0,1.8c0,0.1,0,0.3,0,0.5c0,0.2,0,0.4,0,0.5
			c0,0.3-0.1,0.6-0.4,0.8c-0.2,0.2-0.5,0.3-0.9,0.3c-0.5,0-0.8-0.2-1.1-0.7c-0.7,0.3-1.5,0.4-2.3,0.4c-0.8,0-1.5-0.2-2.1-0.5
			c-0.6-0.4-1-1-1.1-1.7c-0.2-1.4-0.3-2.7-0.3-3.9c0-0.7,0.1-1.6,0.3-2.6c0.1-0.7,0.5-1,1.2-1c0.3,0,0.6,0.1,0.9,0.3
			c0.2,0.2,0.4,0.5,0.4,0.8c0,0.3,0,0.7-0.1,1.2c-0.1,0.5-0.1,1-0.1,1.2c0,0.8,0,1.5,0.1,2.1c0.1,0.6,0.1,1.1,0.2,1.5
			c0.1,0.1,0.3,0.1,0.4,0.1c0.1,0,0.3,0.1,0.4,0.1c0.6,0,1.4-0.1,2.1-0.3c0-0.4,0-1,0-1.5c0-0.7,0-1.2,0-1.5c0-1.2,0.1-2.2,0.2-3.1
			c0.1-0.7,0.5-1,1.2-1c0.3,0,0.6,0.1,0.9,0.3c0.2,0.2,0.4,0.5,0.3,0.8C132.3,297.4,132.2,298.4,132.2,298.2z"/>
		<path id="XMLID_315_" class="st14" d="M140,296.9c-0.6,0-0.9-0.2-1-0.7c-0.2,0-0.5-0.1-0.7-0.1c-1.4,0-2.1,0.2-2.1,0.6
			c0,0.2,0.4,0.5,1.3,0.9c1.1,0.5,1.9,0.9,2.3,1.2c0.8,0.6,1.3,1.3,1.3,2.1c0,1-0.5,1.8-1.4,2.3c-0.7,0.4-1.7,0.6-2.8,0.6
			c-0.8,0-1.5-0.1-2.1-0.4c-0.9-0.3-1.3-0.8-1.3-1.4c0-0.6,0.3-0.9,1-0.9c0.3,0,0.7,0.1,1.2,0.3s0.9,0.3,1.2,0.3
			c1.2,0,1.8-0.2,1.8-0.7c0-0.3-0.4-0.6-1.2-1c-1.2-0.5-2-0.9-2.3-1.1c-0.8-0.6-1.2-1.3-1.2-2.1c0-1.2,0.6-2,1.9-2.4
			c0.7-0.2,1.8-0.4,3.3-0.4c0.6,0,1,0.1,1.3,0.2c0.4,0.2,0.6,0.6,0.6,1.1C140.8,296.4,140.5,296.9,140,296.9z"/>
		<path id="XMLID_317_" class="st14" d="M152.8,295.3c0.4-0.4,0.9-0.7,1.4-0.9s1-0.3,1.6-0.3c1,0,1.7,0.3,2.1,0.8
			c0.3,0.4,0.5,1.1,0.6,1.9c0,0.7,0.1,1.4,0.1,2.1c0.1,0.9,0.2,1.5,0.2,1.7c0.1,0.6,0.2,1.2,0.3,1.7c0,0.1,0,0.2,0,0.3
			c0,0.3-0.1,0.6-0.4,0.8c-0.2,0.2-0.5,0.3-0.9,0.3c-0.6,0-1-0.3-1.1-0.9c-0.1-0.5-0.3-1.1-0.4-2c-0.1-0.8-0.2-1.5-0.2-2
			c0-0.1,0-0.4,0-0.7c0-0.3,0-0.5,0-0.7c0-0.4,0-0.7,0-0.7c-0.1-0.3-0.2-0.5-0.5-0.5c-0.6,0-1.2,0.3-1.7,0.9
			c-0.3,0.3-0.6,0.9-1.1,1.7c0,2.1-0.1,3.4-0.3,3.8c-0.2,0.5-0.6,0.7-1.1,0.7c-0.3,0-0.6-0.1-0.9-0.3c-0.3-0.2-0.4-0.5-0.4-0.8
			c0-0.1,0-0.3,0.1-0.5c0-0.1,0.1-0.9,0.1-2.3c0-1.2,0-3.1,0-5.8l0-0.3c0-0.7,0.1-1.1,0.1-1.4c0-0.2,0-0.4-0.1-0.8
			c-0.1-0.4-0.1-0.6-0.1-0.8c0-0.3,0.1-0.6,0.4-0.8c0.2-0.2,0.5-0.3,0.9-0.3c0.6,0,1,0.3,1.2,0.9c0.1,0.3,0.2,0.9,0.2,1.6
			c0,0.6,0,1.2-0.1,1.8C152.9,294.2,152.8,294.8,152.8,295.3z"/>
		<path id="XMLID_319_" class="st14" d="M164.9,303.7c-1.4,0-2.5-0.3-3.4-1c-1-0.7-1.5-1.8-1.5-3.1c0-1.5,0.4-2.7,1.2-3.7
			c0.9-1.1,2-1.7,3.5-1.7c1,0,1.8,0.2,2.5,0.5c0.9,0.4,1.3,1.1,1.3,2c0,0.6-0.4,1.2-1.1,1.7c-0.3,0.2-1,0.6-2,1l-2.9,1.3
			c0.3,0.3,0.6,0.5,1,0.7c0.4,0.2,0.8,0.2,1.4,0.2c0.8,0,1.4-0.2,2-0.5c0.5-0.3,0.9-0.4,1.2-0.4c0.6,0,0.9,0.3,0.9,0.9
			c0,0.7-0.5,1.2-1.5,1.6C166.7,303.5,165.8,303.7,164.9,303.7z M164.7,296.3c-0.5,0-1,0.2-1.4,0.5c-0.4,0.4-0.7,0.9-0.9,1.6
			c0.7-0.3,1.3-0.6,2-0.8c0.8-0.4,1.4-0.7,1.9-1C165.8,296.4,165.3,296.3,164.7,296.3z"/>
		<path id="XMLID_322_" class="st14" d="M177.8,297c-0.1,0.9-0.5,1.3-1.2,1.3c-0.7,0-1.1-0.4-1.1-1.1l0-0.9c-1.3,0.2-2.2,0.9-2.8,2
			l0,4.4c0,0.3-0.1,0.6-0.3,0.8c-0.2,0.2-0.5,0.3-0.9,0.3c-0.4,0-0.6-0.1-0.8-0.3c-0.2-0.2-0.3-0.5-0.3-0.8V297c0-0.2,0-0.4,0-0.8
			c0-0.4,0-0.6,0-0.8c0-0.3,0.1-0.6,0.3-0.8c0.2-0.2,0.5-0.3,0.8-0.3c0.6,0,1,0.3,1.1,1c1-0.8,2.2-1.1,3.4-1.1
			c1.2,0,1.7,0.8,1.7,2.3C177.8,296.7,177.8,296.9,177.8,297z"/>
		<path id="XMLID_324_" class="st14" d="M183.5,303.7c-1.4,0-2.5-0.3-3.4-1c-1-0.7-1.5-1.8-1.5-3.1c0-1.5,0.4-2.7,1.2-3.7
			c0.9-1.1,2-1.7,3.5-1.7c1,0,1.8,0.2,2.5,0.5c0.9,0.4,1.3,1.1,1.3,2c0,0.6-0.4,1.2-1.1,1.7c-0.3,0.2-1,0.6-2,1l-2.9,1.3
			c0.3,0.3,0.6,0.5,1,0.7c0.4,0.2,0.8,0.2,1.4,0.2c0.8,0,1.4-0.2,2-0.5c0.5-0.3,0.9-0.4,1.2-0.4c0.6,0,0.9,0.3,0.9,0.9
			c0,0.7-0.5,1.2-1.5,1.6C185.2,303.5,184.4,303.7,183.5,303.7z M183.2,296.3c-0.5,0-1,0.2-1.4,0.5c-0.4,0.4-0.7,0.9-0.9,1.6
			c0.7-0.3,1.3-0.6,2-0.8c0.8-0.4,1.4-0.7,1.9-1C184.4,296.4,183.8,296.3,183.2,296.3z"/>
		<path id="XMLID_327_" class="st14" d="M195.7,297.6c0,0-0.5,0.4-1.4,1c-0.6,0.4-1,0.8-1.3,1.1c-0.3,0.3-0.6,0.5-0.9,0.5
			c-0.3,0-0.6-0.1-0.9-0.4c-0.2-0.2-0.4-0.5-0.4-0.8c0-0.5,0.4-1,1.1-1.6c0.7-0.5,1.4-1,2.1-1.5c0.7-0.6,1.1-1.1,1.1-1.5
			c0-0.5-0.3-1-0.8-1.5s-1.1-0.7-1.7-0.7c-0.3,0-0.7,0.2-1.3,0.5c-0.5,0.4-0.9,0.5-1.2,0.5c-0.3,0-0.6-0.1-0.9-0.4
			c-0.2-0.3-0.4-0.5-0.4-0.8c0-0.6,0.5-1.1,1.5-1.6c0.9-0.4,1.6-0.6,2.1-0.6c1.3,0,2.4,0.5,3.4,1.4s1.5,2,1.5,3.2
			C197.5,295.7,196.9,296.7,195.7,297.6z M191.5,303.9c-0.3,0-0.6-0.1-0.9-0.3c-0.3-0.2-0.4-0.5-0.4-0.9c0-0.4,0.1-0.8,0.3-1.1
			c0.3-0.4,0.7-0.6,1.1-0.6c0.4,0,0.7,0.1,0.9,0.4c0.2,0.2,0.3,0.5,0.3,0.9c0,0.4-0.1,0.7-0.3,1C192.3,303.7,192,303.9,191.5,303.9z
			"/>
	</g>
	<g id="XMLID_106_">
		<path id="XMLID_100_" class="st12" d="M244.5,265.2c-1-4.9,3.4-6.5,8-18c10.2-25.8-2.6-41.5,3-56c9.6-24.8,73.7-47.2,110-13
			c24.5,23.1,27.5,63.6,11,88C344.6,313.4,249,286.3,244.5,265.2z"/>
		<g id="XMLID_80_">
			<path id="XMLID_122_" class="st3" d="M369,287.1l62.2,26.2c1.5,0.6,2.2,2.4,1.6,3.9l-3.4,8.1c-0.6,1.5-2.4,2.2-3.9,1.6
				l-62.2-26.2c-1.5-0.6-2.2-2.4-1.6-3.9l3.4-8.1C365.7,287.2,367.5,286.5,369,287.1z"/>
			<path id="XMLID_121_" class="st3" d="M252.1,321.8"/>
			<path id="XMLID_120_" class="st4" d="M305.3,450.4L305.3,450.4c-52.7,0-95.8-43.1-95.8-95.8v-4.9c0-52.7,43.1-95.8,95.8-95.8h0
				c52.7,0,95.8,43.1,95.8,95.8v4.9C401.2,407.2,358,450.4,305.3,450.4z"/>
			<path id="XMLID_119_" class="st3" d="M322.5,284.9L322.5,284.9c-32,0-58.2-25.1-58.2-55.7v-27.9c0-30.6,26.2-55.7,58.2-55.7h0
				c32,0,58.2,25.1,58.2,55.7v27.9C380.7,259.9,354.5,284.9,322.5,284.9z"/>
			<circle id="XMLID_118_" cx="313.2" cy="220.2" r="9.8"/>
			<circle id="XMLID_117_" cx="358.5" cy="218.2" r="9.8"/>
			<path id="XMLID_116_" class="st5" d="M293.2,449.8c-3.4-0.4-8.2-1-14.4-2.8c-3.5-1-6-2-10-3.6c-6.8-2.7-10.5-4.2-14.7-6.9
				c-5.4-3.5-8.1-5.2-9-7.6c-2.4-6,4.3-11,16.8-31.3c8.3-13.5,12.7-25.8,15.2-33.8c-8.3,2.4-59.5,16.8-67,2.7
				c-1-1.8-1.3-4.4-0.2-8.2c38.6,9.1,70.3-7.8,75.8-29.1c4.1-15.8-7-31.4-10.6-36c-4.8-4.2-11.9-8.9-21.3-11.1
				c-7.3-1.6-12.6-0.9-13.3-3.3c-0.9-2.9,5.4-8.5,12.3-9.8c4.8-0.9,8.9,0.4,12.5,1.8c12.9,5.4,22.5,15.2,28.3,22.1
				c3.8,2.4,8.7,5.1,14.7,7.2c10.4,3.6,19.7,4,25.8,3.7c16.1-0.5,28.6-5.3,30.9-11.1c1.8-4.5,2-8.2,2-8.2c0-4.1-0.6-6.9,0.4-7.4
				c0.9-0.4,2.8,1.7,4,3.4c4,5.8,3.7,12.7,3.7,13.5c-0.2,6.1,4.8,20.1,26.9,54.8c0,1.1,0,2.8,0,4.9c-0.2,7-0.7,23.9-9.8,42.2
				c-4.3,8.6-9,14.5-12.2,18.5c-3.4,4.2-8,9.9-15.5,15.9c-2.1,1.7-12.1,9.5-27.5,14.8c-11,3.8-20.1,4.8-24.5,5.1
				C310.8,450.4,303.2,450.9,293.2,449.8z"/>
			<path id="XMLID_115_" class="st3" d="M258.8,307.8l23.6,63.2c0.6,1.5-0.2,3.3-1.8,3.9l-8.2,3.1c-1.5,0.6-3.3-0.2-3.9-1.8
				L245,312.9c-0.6-1.5,0.2-3.3,1.8-3.9l8.2-3.1C256.5,305.4,258.2,306.2,258.8,307.8z"/>
			<g id="XMLID_101_">
				<path id="XMLID_105_" class="st10" d="M322.4,338.4l-24.4-1.3c-0.4,0-0.7-0.4-0.7-0.7l0.7-12c0-0.4,0.4-0.7,0.7-0.7l24.4,1.3
					c0.4,0,0.7,0.4,0.7,0.7l-0.7,12C323.1,338.2,322.8,338.5,322.4,338.4z"/>
				<path id="XMLID_104_" class="st11" d="M321.5,337.2l-22.6-1.2c-0.3,0-0.6-0.3-0.5-0.6l0.4-7.8c0-0.3,0.3-0.6,0.6-0.5l22.6,1.2
					c0.3,0,0.6,0.3,0.5,0.6l-0.4,7.8C322.1,337,321.9,337.2,321.5,337.2z"/>
				<g id="XMLID_102_">
					<path id="XMLID_103_" d="M300.8,329.2c-0.4,1.5-1.2,3.2-1.3,4.7c0,0.3,0.2,0.5,0.5,0.6c1.7,0.7,3.8-2.3,4.9-3.2
						c-0.4-0.2-0.8-0.3-1.1-0.5c-0.1,0.7-0.3,1.4-0.4,2.1c-0.2,0.8,0.8,1.1,1.2,0.5c0.7-0.7,1.5-1.3,2.2-2c-0.3-0.2-0.7-0.4-1-0.6
						c0.1,0.9,0.2,1.7,0.1,2.6c0,0.5,0.6,0.9,1,0.6c1.5-1,2.3-0.8,4.1-0.6c2.5,0.3,5.1,0.2,7.6,0.2c0.9,0,0.9-1.3,0-1.3
						c-3.1-0.1-6.3-0.4-9.4-0.5c-1.4-0.1-1.7,0.1-3,1c0.3,0.2,0.7,0.4,1,0.6c0.1-0.9,0.1-1.7-0.1-2.6c0-0.5-0.5-0.9-1-0.6
						c-1.1,0.7-1.9,1.4-2.7,2.5c0.4,0.2,0.8,0.3,1.2,0.5c0.4-1.3,0.3-1.1,0.5-2.5c0.1-0.6-0.7-0.8-1.1-0.5c-0.3,0.2-2.5,2.4-2.7,2.2
						c-0.2-0.1,0.7-2.7,0.8-3.1C302.3,328.7,301,328.4,300.8,329.2L300.8,329.2z"/>
				</g>
			</g>
		</g>
		<path id="XMLID_82_" class="st13" d="M258.5,207.2c-8.2-7-0.9-34,15-50c22.4-22.5,61.5-22.6,86-6c21.9,14.8,33.4,43.6,27,50
			c-5.9,5.9-21.5-12.9-51-15C294.2,183.2,269,216.2,258.5,207.2z"/>
	</g>
</g>
</svg>
