<?xml version="1.0" encoding="utf-8"?>
<!-- Generator: Adobe Illustrator 19.0.0, SVG Export Plug-In . SVG Version: 6.00 Build 0)  -->
<svg version="1.1" id="Layer_1" xmlns="http://www.w3.org/2000/svg" xmlns:xlink="http://www.w3.org/1999/xlink" x="0px" y="0px"
	 viewBox="0 0 480.2 435.4" style="enable-background:new 0 0 480.2 435.4;" xml:space="preserve">
<style type="text/css">
	.st0{fill:#F0FBFC;}
	.st1{fill:#F1D5BF;}
	.st2{fill:#8BFFF4;}
	.st3{fill:#05BBC9;}
	.st4{fill:#DDDDDD;}
	.st5{fill:#AAAAAA;}
	.st6{fill:#CCCCCC;}
	.st7{fill:#8CFF56;}
	.st8{fill:#1DD000;}
	.st9{fill:#B60004;}
	.st10{fill:#FFFFFF;}
	.st11{fill:#9E005D;}
	.st12{fill:#CD4500;}
	.st13{fill:#A22600;}
</style>
<g id="XMLID_1_">
	<path id="XMLID_60_" class="st0" d="M87.6,250.9c7.5,13.2,1.9,30.3-6.9,42.7c-8.8,12.4-20.7,22.8-27.4,36.5
		c-6.7,13.7-6.3,32.9,6.5,41.3c4.9,3.2,10.8,4.3,16.6,5c19.6,2.3,39.6,0.8,58.6-4.6c17.6-5,34.8-13.3,53.2-13
		c30.6,0.5,55.2,24,83.1,36.4c15.3,6.8,32.1,10.3,48.8,10.2c16.7-0.1,34.7-4.7,44.8-17.9c12.3-16.2,8.7-39,4.6-59
		c-2.7-12.7-5.4-25.5-8-38.2c-2.5-11.9-4.7-25.3,2.2-35.3c5.6-8.1,15.8-11.6,22.7-18.6c13.7-13.8,11.1-36.4,7.5-55.5
		c-1.4-7.5-4.2-16.5-11.7-17.9c-5.3-1-10.2,2.4-15.1,4.5c-20.7,8.8-44.6-6.8-55.9-26.3s-14.7-42.6-24.4-62.9
		c-8.2-17.3-21-32.4-36.6-43.4c-5.5-3.9-11.6-7.3-18.3-7.9c-5.6-0.5-11.1,1.1-16.3,3.2c-21.1,8.8-37.4,28.3-42.3,50.6
		c-4.1,18.9-0.8,39.9-10.4,56.7c-6.5,11.3-18.7,19.1-31.6,20.2c-9.2,0.8-18.3-1.5-27.5-1.8c-17.6-0.7-35.5,6-48.3,18.2
		c-9,8.5-15.7,21.2-12.1,33.1c5.7,19.3,33.7,24.3,40.5,43.2"/>
	<path id="XMLID_29_" class="st1" d="M318.8,226.7l38.4,55.5c0.9,1.4,0.6,3.2-0.8,4.2l-7.2,5c-1.4,0.9-3.2,0.6-4.2-0.8l-38.4-55.5
		c-0.9-1.4-0.6-3.2,0.8-4.2l7.2-5C316,225,317.9,225.4,318.8,226.7z"/>
	<path id="XMLID_7_" class="st1" d="M193.8,256.5"/>
	<path id="XMLID_6_" class="st2" d="M247,385.1L247,385.1c-52.7,0-95.8-43.1-95.8-95.8v-4.9c0-52.7,43.1-95.8,95.8-95.8h0
		c52.7,0,95.8,43.1,95.8,95.8v4.9C342.9,341.9,299.7,385.1,247,385.1z"/>
	<path id="XMLID_4_" class="st1" d="M264.2,219.6L264.2,219.6c-32,0-58.2-25.1-58.2-55.7v-27.9c0-30.6,26.2-55.7,58.2-55.7h0
		c32,0,58.2,25.1,58.2,55.7v27.9C322.4,194.6,296.2,219.6,264.2,219.6z"/>
	<circle id="XMLID_2_" cx="249.5" cy="157.4" r="9.8"/>
	<circle id="XMLID_3_" cx="301.1" cy="159" r="9.8"/>
	<path id="XMLID_12_" class="st3" d="M234.9,384.5c-3.4-0.4-8.2-1-14.4-2.8c-3.5-1-6-2-10-3.6c-6.8-2.7-10.5-4.2-14.7-6.9
		c-5.4-3.5-8.1-5.2-9-7.6c-2.4-6,4.3-11,16.8-31.3c8.3-13.5,12.7-25.8,15.2-33.8c-8.3,2.4-59.5,16.8-67,2.7c-1-1.8-1.3-4.4-0.2-8.2
		c38.6,9.1,70.3-7.8,75.8-29.1c4.1-15.8-7-31.4-10.6-36c-4.8-4.2-11.9-8.9-21.3-11.1c-7.3-1.6-12.6-0.9-13.3-3.3
		c-0.9-2.9,5.4-8.5,12.3-9.8c4.8-0.9,8.9,0.4,12.5,1.8c12.9,5.4,22.5,15.2,28.3,22.1c3.8,2.4,8.7,5.1,14.7,7.2
		c10.4,3.6,19.7,4,25.8,3.7c16.1-0.5,28.6-5.3,30.9-11.1c1.8-4.5,2-8.2,2-8.2c0-4.1-0.6-6.9,0.4-7.4c0.9-0.4,2.8,1.7,4,3.4
		c4,5.8,3.7,12.7,3.7,13.5c-0.2,6.1,4.8,20.1,26.9,54.8c0,1.1,0,2.8,0,4.9c-0.2,7-0.7,23.9-9.8,42.2c-4.3,8.6-9,14.5-12.2,18.5
		c-3.4,4.2-8,9.9-15.5,15.9c-2.1,1.7-12.1,9.5-27.5,14.8c-11,3.8-20.1,4.8-24.5,5.1C252.5,385.1,244.9,385.6,234.9,384.5z"/>
	<path id="XMLID_8_" class="st1" d="M206,246.5l-4.6,67.3c-0.1,1.6-1.6,2.9-3.2,2.8l-8.7-0.6c-1.6-0.1-2.9-1.6-2.8-3.2l4.6-67.3
		c0.1-1.6,1.6-2.9,3.2-2.8l8.7,0.6C204.9,243.4,206.2,244.9,206,246.5z"/>
	<g id="XMLID_10_">
		<path id="XMLID_5_" class="st4" d="M456.7,285.6c-44,6.4-87.9,12.8-131.9,19.2c-5.5-7.5-10.9-15-16.4-22.5
			c0.4-0.1,1.3-0.2,2.6-0.4c7.6-1.2,13.6-1.8,16.4-2.2c6.7-0.7,50.9-5.4,111.7-11.8c2.4,0.8,6.9,2.7,11.1,7
			C454.1,278.9,455.9,283.2,456.7,285.6z"/>
		<polygon id="XMLID_9_" class="st5" points="422.3,339.6 456.7,285.6 324.8,304.8 297.8,365.8 		"/>
		<path id="XMLID_11_" class="st6" d="M276.5,347.9c0.1-0.6,0.3-1.5,0.7-2.6c0.4-1.2,0.9-2.1,1-2.3c1.3-2.5,17.3-39.2,21.7-49.8
			c0.6-1.6,2.5-6.1,6.9-9.7c0.7-0.6,1.3-1,1.7-1.3c5.5,7.5,10.9,15,16.4,22.5c-9,20.4-18,40.7-27,61.1c-6.6-3.5-13.5-8.5-19.5-15.7
			C277.7,349.4,277,348.7,276.5,347.9z"/>
		<path id="XMLID_13_" class="st4" d="M421,339.9c-21.8,4.2-43.6,8.4-65.4,12.6c-3.8-5.8-7.6-11.7-11.4-17.5
			c24.4-3.8,48.7-7.6,73.1-11.4c1,1.5,2.6,4.1,3.4,7.7C421.5,335,421.3,338.1,421,339.9z"/>
		<path id="XMLID_14_" class="st5" d="M328.2,364.5"/>
		<path id="XMLID_16_" class="st6" d="M344.4,365.8c-5.6-2-11.2-4-16.8-5.9c5.6-8.3,11.1-16.6,16.7-24.9c3.9,5.8,7.7,11.7,11.6,17.5
			C352,357,348.2,361.4,344.4,365.8z"/>
		<path id="XMLID_19_" class="st5" d="M344.5,365.7c20.2-3.4,40.3-6.8,60.5-10.1c5.3-5.2,10.6-10.4,16-15.7
			c-21.6,4.1-43.2,8.2-64.8,12.3C352.3,356.7,348.4,361.2,344.5,365.7z"/>
		<path id="XMLID_21_" class="st7" d="M422.8,409"/>
	</g>
	<g id="XMLID_28_">
		<g id="XMLID_90_">
			<path id="XMLID_91_" class="st8" d="M375.8,160.2c-0.5-0.2-0.8-0.6-1.1-1.1c-1.5-3.7-3.7-6.7-6.4-9.1c-1,2.6-1.6,4-1.8,4.3
				c-0.2,0.5-0.6,0.8-1.1,1c-0.5,0.2-1,0.2-1.5-0.1c-0.5-0.2-0.9-0.6-1.1-1.1c-0.2-0.5-0.2-1,0-1.5c0.3-0.7,0.7-1.6,1.4-2.9
				s1.1-2.3,1.4-2.9l4.8-10.6c0.3-0.6,0.7-1,1.2-1.3c0.7-0.4,1.5-0.4,2.2,0c2.1,1.1,3.1,1.7,3.2,1.7c1.2,0.7,2.1,1.5,2.7,2.3
				c2.9,3.6,3.7,6.7,2.5,9.5c-0.5,1.1-1.4,2-2.5,2.5c-1.2,0.5-2.7,0.7-4.5,0.6c1.7,2.3,2.9,4.4,3.5,6.3c0.1,0.5,0.1,0.9-0.1,1.4
				c-0.2,0.5-0.6,0.8-1.1,1C376.8,160.5,376.3,160.5,375.8,160.2z M374.8,139.9c-0.1,0-0.6-0.3-1.5-0.8l-3.1,7
				c0.2,0.1,0.4,0.2,0.6,0.3c2.1,1,3.9,1.4,5.1,1.3c0.5,0,1.1-0.1,1.6-0.4c0.5-0.2,0.9-0.4,0.9-0.6c0.4-1,0.2-2.2-0.6-3.7
				C377.1,141.7,376.1,140.7,374.8,139.9z"/>
			<path id="XMLID_94_" class="st8" d="M385.4,165.3c-0.8-0.3-1.5-0.8-2.3-1.3l-2.4,5.4c-0.2,0.5-0.6,0.9-1.1,1
				c-0.5,0.2-1,0.2-1.5-0.1c-0.5-0.2-0.9-0.6-1.1-1.1c-0.2-0.5-0.2-1,0.1-1.5c0.2-0.4,0.9-2,2.2-4.9c1-2.1,1.7-3.8,2.3-5.2
				c0.8-1.9,1.5-3.6,2-5c0.7-1.9,1-2.8,1-2.7c0.3-0.7,0.8-1.3,1.3-1.6c0.6-0.4,1.3-0.5,1.9-0.2c0.5,0.2,0.8,0.6,1,1.1s0.2,1,0,1.4
				l-0.1,0.1c0.7-0.1,1.4-0.1,2.1,0.1c0.7,0.1,1.3,0.3,1.9,0.6c2,0.9,3.1,2.4,3.3,4.5c0.1,1.6-0.3,3.4-1.2,5.5
				c-0.9,1.9-2.1,3.3-3.8,4C389.2,166.2,387.3,166.2,385.4,165.3z M391.1,154.8c-0.6-0.2-1.2-0.4-1.9-0.4c-0.7,0-1.4,0.1-2.2,0.4
				c-0.7,1.9-1.5,3.7-2.3,5.5c0.7,0.6,1.4,1.1,2.2,1.4c0.9,0.4,1.7,0.4,2.5,0c0.7-0.4,1.3-1.1,1.7-2c0.5-1.2,0.8-2,0.9-2.5
				C392.3,156,392,155.2,391.1,154.8z"/>
			<path id="XMLID_97_" class="st8" d="M412.1,177c-2.9-1.3-4.4-3.5-4.6-6.6c-0.1-2.3,0.5-4.9,1.8-7.8c1.1-2.5,2.7-4.4,4.9-5.7
				c2.5-1.6,5.1-1.8,7.8-0.6c2.5,1.1,4,3,4.5,5.7c0.4,2.2,0.1,4.6-1,7c-1.8,3.9-3.7,6.5-5.9,7.9C417.2,178.1,414.8,178.2,412.1,177z
				 M420.4,159.7c-1.4-0.6-2.9-0.4-4.4,0.6c-1.3,0.9-2.3,2.1-3,3.8c-1,2.1-1.5,3.9-1.6,5.2c-0.2,2.2,0.6,3.6,2.3,4.4
				c1.4,0.6,2.8,0.5,4.1-0.5c1.3-1,2.5-2.8,3.7-5.4c0.9-2.1,1.3-3.8,1.1-5.1C422.5,161.2,421.7,160.2,420.4,159.7z"/>
		</g>
		<circle id="XMLID_27_" class="st8" cx="367.1" cy="180.4" r="1.7"/>
		<circle id="XMLID_48_" class="st8" cx="371.7" cy="203.2" r="1.7"/>
		<circle id="XMLID_47_" class="st8" cx="366.4" cy="192.9" r="1.7"/>
		<circle id="XMLID_54_" class="st8" cx="380.6" cy="210" r="1.7"/>
		<circle id="XMLID_53_" class="st8" cx="394.6" cy="215.4" r="1.7"/>
		<circle id="XMLID_56_" class="st8" cx="402.7" cy="222.5" r="1.7"/>
		<circle id="XMLID_62_" class="st8" cx="408.2" cy="242" r="1.7"/>
		<circle id="XMLID_61_" class="st8" cx="407.3" cy="233.1" r="1.7"/>
		<circle id="XMLID_59_" class="st8" cx="405.4" cy="253.2" r="1.7"/>
		<circle id="XMLID_63_" class="st8" cx="397.9" cy="262.8" r="1.7"/>
	</g>
	<g id="XMLID_25_">
		<path id="XMLID_20_" class="st9" d="M264.1,273.1l-24.4-1.3c-0.4,0-0.7-0.4-0.7-0.7l0.7-12c0-0.4,0.4-0.7,0.7-0.7l24.4,1.3
			c0.4,0,0.7,0.4,0.7,0.7l-0.7,12C264.8,272.9,264.5,273.2,264.1,273.1z"/>
		<path id="XMLID_23_" class="st10" d="M263.2,271.9l-22.6-1.2c-0.3,0-0.6-0.3-0.5-0.6l0.4-7.8c0-0.3,0.3-0.6,0.6-0.5l22.6,1.2
			c0.3,0,0.6,0.3,0.5,0.6l-0.4,7.8C263.8,271.7,263.6,271.9,263.2,271.9z"/>
		<g id="XMLID_24_">
			<path id="XMLID_32_" d="M242.5,263.9c-0.4,1.5-1.2,3.2-1.3,4.7c0,0.3,0.2,0.5,0.5,0.6c1.7,0.7,3.8-2.3,4.9-3.2
				c-0.4-0.2-0.8-0.3-1.1-0.5c-0.1,0.7-0.3,1.4-0.4,2.1c-0.2,0.8,0.8,1.1,1.2,0.5c0.7-0.7,1.5-1.3,2.2-2c-0.3-0.2-0.7-0.4-1-0.6
				c0.1,0.9,0.2,1.7,0.1,2.6c0,0.5,0.6,0.9,1,0.6c1.5-1,2.3-0.8,4.1-0.6c2.5,0.3,5.1,0.2,7.6,0.2c0.9,0,0.9-1.3,0-1.3
				c-3.1-0.1-6.3-0.4-9.4-0.5c-1.4-0.1-1.7,0.1-3,1c0.3,0.2,0.7,0.4,1,0.6c0.1-0.9,0.1-1.7-0.1-2.6c0-0.5-0.5-0.9-1-0.6
				c-1.1,0.7-1.9,1.4-2.7,2.5c0.4,0.2,0.8,0.3,1.2,0.5c0.4-1.3,0.3-1.1,0.5-2.5c0.1-0.6-0.7-0.8-1.1-0.5c-0.3,0.2-2.5,2.4-2.7,2.2
				c-0.2-0.1,0.7-2.7,0.8-3.1C244,263.4,242.7,263.1,242.5,263.9L242.5,263.9z"/>
		</g>
	</g>
	<g id="XMLID_57_">
		<g id="XMLID_55_">
			<path id="XMLID_49_" class="st11" d="M172.9,178.1L41,190.5c-1.8,0.2-3.5-1.2-3.6-3l-6.1-65c-0.2-1.8,1.2-3.5,3-3.6l131.9-12.4
				c1.8-0.2,3.5,1.2,3.6,3l6.1,65C176.1,176.3,174.7,178,172.9,178.1z"/>
			<path id="XMLID_46_" class="st10" d="M167.9,172.2l-123,11.6c-1.2,0.1-2.4-0.8-2.5-2l-4.9-52.4c-0.1-1.2,0.8-2.4,2-2.5l123-11.6
				c1.2-0.1,2.4,0.8,2.5,2l4.9,52.4C170,171,169.1,172.1,167.9,172.2z"/>
		</g>
		<g id="XMLID_31_">
			<path id="XMLID_30_" class="st11" d="M74.3,131.3c-6.8,7-26.8,34.9-6.6,37.8c8.3,1.2,11-7.7,12.9-14.3c2.1-7.3,3.9-17.1-4.6-20.7
				c-2.9-1.2-5.4,3-2.5,4.2c6.2,2.7,3.3,12.3,1.6,17.3c-0.4,1.2-2.1,6.3-3.4,7.4c-4.4,3.8-7.9-0.7-7.7-4.5c0.5-8.4,8.2-18,13.7-23.7
				C80,132.5,76.5,129.1,74.3,131.3L74.3,131.3z"/>
		</g>
		<g id="XMLID_44_">
			<path id="XMLID_26_" class="st11" d="M86.8,140.4c-0.7,9.7-0.4,20.3-2.6,29.8c-0.6,2.6,3.3,4.6,4.5,1.9c3.1-7.2,3.6-15.2,6-22.7
				c0.6-2,1.4-3.9,2.1-5.8c1.8-4.3,3.5-5.4,3.9,0.7c0.3,4.8-1.1,5.1-5.3,6.3c-2.1,0.6-4.3,0.7-6.5,1c-3.1,0.5-1.8,5.2,1.3,4.7
				c6-0.9,13.8-1.6,16.4-8.2c1.8-4.6-0.5-10-4.6-12.5c-12.4-7.5-15,28-17.7,34c1.5,0.6,3,1.3,4.5,1.9c2.3-10,2-20.9,2.7-31.1
				C91.9,137.3,87,137.3,86.8,140.4L86.8,140.4z"/>
		</g>
		<g id="XMLID_50_">
			<path id="XMLID_22_" class="st11" d="M113.1,150.3c5.2,0.3,10.5-4.8,9.6-10.2c-0.9-5.9-7.5-6.1-10.9-2.1
				c-3.5,4.1-4.9,12.1-2.4,17.1c1.1,2.1,3.1,3.6,5.5,3.4c3.4-0.2,4.7-3.4,7.6-4.6c2.9-1.1,1.6-5.9-1.3-4.7c-1.5,0.6-2.5,1.4-3.9,2.4
				c-0.7,0.5-2.5,2.1-3.5,1.4c-0.8-0.5-0.7-3.4-0.7-4.1c0-2.3,0.6-5.3,2-7.3c1.6-2.2,3.3-1,2.1,1.2c-0.9,1.6-2.4,2.6-4.3,2.5
				C109.9,145.2,109.9,150.1,113.1,150.3L113.1,150.3z"/>
		</g>
		<g id="XMLID_51_">
			<path id="XMLID_17_" class="st11" d="M131.2,156.1c-0.2-7,0.1-14,0.8-21c-1.6,0.2-3.2,0.4-4.8,0.7c0.5,2,0.6,3.8,0.3,5.9
				c-0.5,3.1,4,4.4,4.7,1.3c0.3-0.8,0.5-1.6,0.7-2.5c0.2-1.1,0.4-0.8,0.6,1c0.6,1.4,0.8,3.3,1.1,4.8c0.7,3.6,0.8,7.2,0.7,10.8
				c-0.1,3.2,4.8,3.2,4.9,0c0.1-4.1-0.2-8.1-0.9-12.1c-0.5-2.7-0.9-7.2-2.8-9.3c-3.8-4.3-8.3,2.7-9.1,6c1.6,0.4,3.2,0.9,4.7,1.3
				c0.5-3,0.5-5.5-0.3-8.5c-0.7-2.8-4.6-2-4.8,0.7c-0.7,7-0.9,14-0.8,21C126.4,159.3,131.3,159.3,131.2,156.1L131.2,156.1z"/>
		</g>
	</g>
	<path id="XMLID_41_" class="st12" d="M203.6,140.6c-1.6-1.1-0.9-5.6,0.4-14.7c1.8-12.5,2.7-18.8,6.1-24.2
		c5.2-8.1,15.9-16.1,21.4-13.1c5.4,2.8,4.6,14.9,2.7,22.1C229.3,130.3,208.5,144,203.6,140.6z"/>
	<path id="XMLID_43_" class="st13" d="M323.6,134.4c5-4.7-1.2-19.7-6.6-28.3c-11.8-19-33.8-30.4-55.7-31.5
		c-8.8-0.4-28.8-1.4-35.6,10.6c-5,8.8-1.7,22.7,6.1,30.7c12.4,12.6,27,1.2,61.4,11.1C310.7,132,319.4,138.5,323.6,134.4z"/>
</g>
</svg>
