<?xml version="1.0" encoding="utf-8"?>
<!-- Generator: Adobe Illustrator 19.0.0, SVG Export Plug-In . SVG Version: 6.00 Build 0)  -->
<svg version="1.1" id="Layer_1" xmlns="http://www.w3.org/2000/svg" xmlns:xlink="http://www.w3.org/1999/xlink" x="0px" y="0px"
	 viewBox="0 0 451.5 412.5" style="enable-background:new 0 0 451.5 412.5;" xml:space="preserve">
<style type="text/css">
	.st0{fill:#F0FBFC;}
	.st1{fill:#F1D5BF;}
	.st2{fill:#8BFFF4;}
	.st3{fill:#05BBC9;}
	.st4{fill:#DDDDDD;}
	.st5{fill:#AAAAAA;}
	.st6{fill:#CCCCCC;}
	.st7{fill:#8CFF56;}
	.st8{fill:#0045B6;}
	.st9{fill:#B60004;}
	.st10{fill:#FFFFFF;}
	.st11{fill:#CD4500;}
	.st12{fill:#A22600;}
</style>
<path id="XMLID_380_" class="st0" d="M80.1,232.3c8.5,12.4,2.2,28.4-7.7,40.1c-9.9,11.7-23.3,21.4-30.9,34.3s-7.1,30.9,7.3,38.8
	c5.5,3,12.2,4,18.8,4.7c22.1,2.2,44.7,0.7,66.2-4.3c19.9-4.7,39.4-12.5,60.1-12.2c34.5,0.4,62.3,22.5,93.9,34.2
	c17.3,6.4,36.2,9.7,55.2,9.6c18.8-0.1,39.2-4.4,50.7-16.8c14-15.2,9.9-36.7,5.1-55.4c-3-12-6.1-23.9-9.1-35.9
	c-2.8-11.2-5.3-23.8,2.5-33.1c6.3-7.6,17.8-10.9,25.6-17.4c15.4-13,12.5-34.1,8.5-52.1c-1.6-7-4.8-15.5-13.2-16.8
	c-6-0.9-11.5,2.3-17.1,4.3c-23.4,8.3-50.4-6.4-63.1-24.7c-12.7-18.3-16.6-40-27.6-59.1c-9.3-16.2-23.7-30.4-41.4-40.8
	c-6.2-3.6-13.1-6.9-20.7-7.4c-6.3-0.4-12.6,1-18.4,3c-23.8,8.2-42.2,26.5-47.7,47.5c-4.7,17.8-0.9,37.5-11.8,53.2
	c-7.3,10.6-21.1,17.9-35.7,19c-10.4,0.8-20.7-1.4-31.1-1.7c-19.9-0.7-40.1,5.6-54.5,17.1c-10.1,8-17.7,19.9-13.7,31.1
	c6.5,18.1,38,22.8,45.8,40.6"/>
<path id="XMLID_379_" class="st1" d="M250.5,201.8l38.4,55.5c0.9,1.4,0.6,3.2-0.8,4.2l-7.2,5c-1.4,0.9-3.2,0.6-4.2-0.8l-38.4-55.5
	c-0.9-1.4-0.6-3.2,0.8-4.2l7.2-5C247.6,200.1,249.5,200.4,250.5,201.8z"/>
<path id="XMLID_378_" class="st1" d="M125.4,231.5"/>
<path id="XMLID_377_" class="st2" d="M178.6,360.1L178.6,360.1c-52.7,0-95.8-43.1-95.8-95.8v-4.9c0-52.7,43.1-95.8,95.8-95.8h0
	c52.7,0,95.8,43.1,95.8,95.8v4.9C274.5,317,231.3,360.1,178.6,360.1z"/>
<path id="XMLID_376_" class="st1" d="M195.8,194.7L195.8,194.7c-32,0-58.2-25.1-58.2-55.7v-27.9c0-30.6,26.2-55.7,58.2-55.7h0
	c32,0,58.2,25.1,58.2,55.7v27.9C254,169.6,227.8,194.7,195.8,194.7z"/>
<circle id="XMLID_375_" cx="181.1" cy="132.4" r="9.8"/>
<circle id="XMLID_374_" cx="232.7" cy="134" r="9.8"/>
<path id="XMLID_373_" class="st3" d="M166.5,359.5c-3.4-0.4-8.2-1-14.4-2.8c-3.5-1-6-2-10-3.6c-6.8-2.7-10.5-4.2-14.7-6.9
	c-5.4-3.5-8.1-5.2-9-7.6c-2.4-6,4.3-11,16.8-31.3c8.3-13.5,12.7-25.8,15.2-33.8c-8.3,2.4-59.5,16.8-67,2.7c-1-1.8-1.3-4.4-0.2-8.2
	c38.6,9.1,70.3-7.8,75.8-29.1c4.1-15.8-7-31.4-10.6-36c-4.8-4.2-11.9-8.9-21.3-11.1c-7.3-1.6-12.6-0.9-13.3-3.3
	c-0.9-2.9,5.4-8.5,12.3-9.8c4.8-0.9,8.9,0.4,12.5,1.8c12.9,5.4,22.5,15.2,28.3,22.1c3.8,2.4,8.7,5.1,14.7,7.2
	c10.4,3.6,19.7,4,25.8,3.7c16.1-0.5,28.6-5.3,30.9-11.1c1.8-4.5,2-8.2,2-8.2c0-4.1-0.6-6.9,0.4-7.4c0.9-0.4,2.8,1.7,4,3.4
	c4,5.8,3.7,12.7,3.7,13.5c-0.2,6.1,4.8,20.1,26.9,54.8c0,1.1,0,2.8,0,4.9c-0.2,7-0.7,23.9-9.8,42.2c-4.3,8.6-9,14.5-12.2,18.5
	c-3.4,4.2-8,9.9-15.5,15.9c-2.1,1.7-12.1,9.5-27.5,14.8c-11,3.8-20.1,4.8-24.5,5.1C184.1,360.1,176.5,360.6,166.5,359.5z"/>
<path id="XMLID_372_" class="st1" d="M137.7,221.5l-4.6,67.3c-0.1,1.6-1.6,2.9-3.2,2.8l-8.7-0.6c-1.6-0.1-2.9-1.6-2.8-3.2l4.6-67.3
	c0.1-1.6,1.6-2.9,3.2-2.8l8.7,0.6C136.5,218.5,137.8,219.9,137.7,221.5z"/>
<g id="XMLID_363_">
	<path id="XMLID_371_" class="st4" d="M388.3,260.6c-44,6.4-87.9,12.8-131.9,19.2c-5.5-7.5-10.9-15-16.4-22.5
		c0.4-0.1,1.3-0.2,2.6-0.4c7.6-1.2,13.6-1.8,16.4-2.2c6.7-0.7,50.9-5.4,111.7-11.8c2.4,0.8,6.9,2.7,11.1,7
		C385.7,254,387.5,258.2,388.3,260.6z"/>
	<polygon id="XMLID_370_" class="st5" points="353.9,314.6 388.3,260.6 256.4,279.8 229.4,340.9 	"/>
	<path id="XMLID_369_" class="st6" d="M208.1,322.9c0.1-0.6,0.3-1.5,0.7-2.6c0.4-1.2,0.9-2.1,1-2.3c1.3-2.5,17.3-39.2,21.7-49.8
		c0.6-1.6,2.5-6.1,6.9-9.7c0.7-0.6,1.3-1,1.7-1.3c5.5,7.5,10.9,15,16.4,22.5c-9,20.4-18,40.7-27,61.1c-6.6-3.5-13.5-8.5-19.5-15.7
		C209.3,324.5,208.7,323.7,208.1,322.9z"/>
	<path id="XMLID_368_" class="st4" d="M352.6,315c-21.8,4.2-43.6,8.4-65.4,12.6c-3.8-5.8-7.6-11.7-11.4-17.5
		c24.4-3.8,48.7-7.6,73.1-11.4c1,1.5,2.6,4.1,3.4,7.7C353.1,310,352.9,313.1,352.6,315z"/>
	<path id="XMLID_367_" class="st5" d="M259.8,339.5"/>
	<path id="XMLID_366_" class="st6" d="M276,340.9c-5.6-2-11.2-4-16.8-5.9c5.6-8.3,11.1-16.6,16.7-24.9c3.9,5.8,7.7,11.7,11.6,17.5
		C283.6,332,279.8,336.4,276,340.9z"/>
	<path id="XMLID_365_" class="st5" d="M276.1,340.8c20.2-3.4,40.3-6.8,60.5-10.1c5.3-5.2,10.6-10.4,16-15.7
		c-21.6,4.1-43.2,8.2-64.8,12.3C283.9,331.7,280,336.2,276.1,340.8z"/>
	<path id="XMLID_364_" class="st7" d="M354.4,384.1"/>
</g>
<g id="XMLID_351_">
	
		<ellipse id="XMLID_361_" transform="matrix(0.9596 0.2815 -0.2815 0.9596 55.2221 -86.433)" class="st8" cx="328.4" cy="149" rx="1.7" ry="1.4"/>
	
		<ellipse id="XMLID_360_" transform="matrix(0.9596 0.2815 -0.2815 0.9596 60.4616 -85.4988)" class="st8" cx="327.8" cy="167.7" rx="1.7" ry="1.4"/>
	
		<ellipse id="XMLID_359_" transform="matrix(0.9596 0.2815 -0.2815 0.9596 57.7091 -85.0742)" class="st8" cx="324.9" cy="158.3" rx="1.7" ry="1.4"/>
	
		<ellipse id="XMLID_358_" transform="matrix(0.9596 0.2815 -0.2815 0.9596 62.9041 -87.1691)" class="st8" cx="334.8" cy="175.3" rx="1.7" ry="1.4"/>
	
		<ellipse id="XMLID_357_" transform="matrix(0.9596 0.2815 -0.2815 0.9596 65.6549 -90.2682)" class="st8" cx="347" cy="183.4" rx="1.7" ry="1.4"/>
	
		<ellipse id="XMLID_356_" transform="matrix(0.9596 0.2815 -0.2815 0.9596 68.0801 -91.7053)" class="st8" cx="353.2" cy="191.1" rx="1.7" ry="1.4"/>
	
		<ellipse id="XMLID_355_" transform="matrix(0.9596 0.2815 -0.2815 0.9596 72.7519 -91.2862)" class="st8" cx="354.1" cy="207.6" rx="1.7" ry="1.4"/>
	
		<ellipse id="XMLID_354_" transform="matrix(0.9596 0.2815 -0.2815 0.9596 70.8097 -91.8843)" class="st8" cx="355.2" cy="200.5" rx="1.7" ry="1.4"/>
	
		<ellipse id="XMLID_353_" transform="matrix(0.9596 0.2815 -0.2815 0.9596 74.733 -89.518)" class="st8" cx="348.9" cy="215.3" rx="1.7" ry="1.4"/>
	
		<ellipse id="XMLID_352_" transform="matrix(0.9596 0.2815 -0.2815 0.9596 75.8043 -86.6765)" class="st8" cx="339.6" cy="220.5" rx="1.7" ry="1.4"/>
</g>
<g id="XMLID_346_">
	<path id="XMLID_350_" class="st9" d="M195.7,248.2l-24.4-1.3c-0.4,0-0.7-0.4-0.7-0.7l0.7-12c0-0.4,0.4-0.7,0.7-0.7l24.4,1.3
		c0.4,0,0.7,0.4,0.7,0.7l-0.7,12C196.4,247.9,196.1,248.2,195.7,248.2z"/>
	<path id="XMLID_349_" class="st10" d="M194.9,246.9l-22.6-1.2c-0.3,0-0.6-0.3-0.5-0.6l0.4-7.8c0-0.3,0.3-0.6,0.6-0.5l22.6,1.2
		c0.3,0,0.6,0.3,0.5,0.6l-0.4,7.8C195.4,246.7,195.2,247,194.9,246.9z"/>
	<g id="XMLID_347_">
		<path id="XMLID_348_" d="M174.1,238.9c-0.4,1.5-1.2,3.2-1.3,4.7c0,0.3,0.2,0.5,0.5,0.6c1.7,0.7,3.8-2.3,4.9-3.2
			c-0.4-0.2-0.8-0.3-1.1-0.5c-0.1,0.7-0.3,1.4-0.4,2.1c-0.2,0.8,0.8,1.1,1.2,0.5c0.7-0.7,1.5-1.3,2.2-2c-0.3-0.2-0.7-0.4-1-0.6
			c0.1,0.9,0.2,1.7,0.1,2.6c0,0.5,0.6,0.9,1,0.6c1.5-1,2.3-0.8,4.1-0.6c2.5,0.3,5.1,0.2,7.6,0.2c0.9,0,0.9-1.3,0-1.3
			c-3.1-0.1-6.3-0.4-9.4-0.5c-1.4-0.1-1.7,0.1-3,1c0.3,0.2,0.7,0.4,1,0.6c0.1-0.9,0.1-1.7-0.1-2.6c0-0.5-0.5-0.9-1-0.6
			c-1.1,0.7-1.9,1.4-2.7,2.5c0.4,0.2,0.8,0.3,1.2,0.5c0.4-1.3,0.3-1.1,0.5-2.5c0.1-0.6-0.7-0.8-1.1-0.5c-0.3,0.2-2.5,2.4-2.7,2.2
			c-0.2-0.1,0.7-2.7,0.8-3.1C175.6,238.4,174.3,238.1,174.1,238.9L174.1,238.9z"/>
	</g>
</g>
<path id="XMLID_25_" class="st11" d="M135.2,115.6c-1.6-1.1-0.9-5.6,0.4-14.7c1.8-12.5,2.7-18.8,6.1-24.2
	c5.2-8.1,15.9-16.1,21.4-13.1c5.4,2.8,4.6,14.9,2.7,22.1C160.9,105.3,140.1,119,135.2,115.6z"/>
<path id="XMLID_24_" class="st12" d="M255.2,109.5c5-4.7-1.2-19.7-6.6-28.3c-11.8-19-33.8-30.4-55.7-31.5
	c-8.8-0.4-28.8-1.4-35.6,10.6c-5,8.8-1.7,22.7,6.1,30.7c12.4,12.6,27,1.2,61.4,11.1C242.4,107.1,251,113.5,255.2,109.5z"/>
<g id="XMLID_7_">
	<path id="XMLID_21_" class="st8" d="M359.9,78.4l-3.8-1.4c-2.1-0.7-2.9-1.5-2.6-2.3c0.1-0.4,0.4-0.7,1-1c0.4-0.2,0.8-0.5,1.2-0.7
		c1.6-1.1,3.9-2.7,7-4.9c0.7-0.5,1.5-0.6,2.3-0.3c0.4,0.1,0.7,0.3,0.9,0.6c0.2,0.3,0.3,0.7,0.1,1.1l-2.5,7.2
		c0.8,0.3,1.4,0.6,1.6,0.9c0.3,0.3,0.3,0.7,0.1,1.2c-0.2,0.5-0.6,0.8-1.1,0.8c-0.4,0-0.9-0.1-1.5-0.3c-0.3,0.9-0.7,1.9-1.1,3
		c-0.1,0.3-0.3,0.6-0.7,0.8c-0.3,0.2-0.6,0.2-1,0c-1-0.3-1.2-1.1-0.7-2.4L359.9,78.4z M362.3,71.6c-1,0.8-2.4,1.9-4.4,3.3l2.9,1
		L362.3,71.6z"/>
	<path id="XMLID_18_" class="st8" d="M369.2,86.6c-2.1-0.8-3.3-2.2-3.6-4.4c-0.2-1.6,0-3.5,0.8-5.6c0.6-1.8,1.7-3.3,3.1-4.3
		c1.7-1.3,3.5-1.5,5.4-0.9c1.8,0.6,3,1.9,3.5,3.7c0.4,1.5,0.3,3.2-0.3,5c-1,2.9-2.3,4.8-3.7,5.9C372.9,87.1,371.2,87.3,369.2,86.6z
		 M374.1,73.9c-1-0.4-2-0.1-3,0.7c-0.9,0.7-1.5,1.6-1.9,2.8c-0.6,1.6-0.8,2.8-0.8,3.8c0,1.5,0.6,2.5,1.9,3c1,0.4,2,0.2,2.9-0.6
		c0.9-0.8,1.6-2.1,2.3-4c0.5-1.5,0.7-2.8,0.5-3.7C375.6,74.9,375,74.3,374.1,73.9z"/>
	<path id="XMLID_14_" class="st8" d="M383.9,86.9l-3.8-1.4c-2.1-0.7-2.9-1.5-2.6-2.3c0.1-0.4,0.4-0.7,1-1c0.4-0.2,0.8-0.5,1.2-0.7
		c1.5-1.1,3.9-2.7,7-4.9c0.7-0.5,1.5-0.6,2.3-0.3c0.4,0.1,0.7,0.3,0.9,0.6c0.2,0.3,0.3,0.7,0.1,1.1l-2.5,7.2
		c0.8,0.3,1.4,0.6,1.6,0.9c0.3,0.3,0.3,0.7,0.1,1.2c-0.2,0.5-0.6,0.8-1.1,0.8c-0.4,0-0.9-0.1-1.5-0.3c-0.3,0.9-0.7,1.9-1.1,3
		c-0.1,0.3-0.3,0.6-0.7,0.8c-0.3,0.2-0.7,0.2-1,0c-1-0.3-1.2-1.1-0.7-2.4L383.9,86.9z M386.3,80.1c-1,0.8-2.4,1.9-4.4,3.3l2.9,1
		L386.3,80.1z"/>
	<path id="XMLID_12_" class="st8" d="M317.8,81.5c-0.5-0.2-1.3-0.5-2.3-0.9c-1-0.4-1.8-0.7-2.3-0.9c-0.2,0.7-0.6,2.1-1.1,4
		c-0.4,1.7-0.8,3-1.2,4c-0.1,0.2-0.2,0.5-0.3,1c-0.1,0.4-0.2,0.8-0.3,1c-0.2,0.5-0.4,0.9-0.8,1.2c-0.4,0.4-0.9,0.5-1.4,0.3
		c-0.4-0.1-0.6-0.3-0.8-0.7c-0.2-0.4-0.3-0.7-0.1-1.1c0-0.1,0.1-0.2,0.2-0.4c0.1-0.2,0.2-0.3,0.2-0.4c0.1-0.3,0.2-0.7,0.4-1.4
		c0.2-0.6,0.3-1.1,0.4-1.4c0.3-0.9,0.6-2,1-3.6c0.4-1.7,0.8-2.9,1-3.6l-0.5-0.2c-1.4-0.5-2.5-1-3.3-1.5c-0.6-0.4-0.9-1-0.6-1.6
		c0.1-0.3,0.3-0.6,0.7-0.8c0.4-0.2,0.8-0.2,1.2,0c0.2,0.1,0.7,0.3,1.5,0.7c0.6,0.3,1.1,0.5,1.5,0.6c0.4,0.1,1,0.3,1.8,0.6
		c0.8,0.3,1.4,0.5,1.8,0.6c0.5,0.2,1.2,0.5,2.2,0.9c0.9,0.4,1.7,0.7,2.1,0.9c0.4,0.1,0.7,0.4,0.8,0.7c0.2,0.3,0.2,0.7,0.1,1.1
		c-0.1,0.4-0.4,0.6-0.7,0.8C318.5,81.7,318.2,81.7,317.8,81.5z"/>
	<path id="XMLID_10_" class="st8" d="M326.4,89.8c-0.4,1-1,1.3-1.9,1c-0.8-0.3-1.1-0.8-0.8-1.7l0.3-1c-1.5-0.3-2.8,0.1-3.9,1.1
		l-1.7,4.8c-0.1,0.4-0.4,0.6-0.7,0.8c-0.3,0.2-0.7,0.2-1.1,0c-0.4-0.1-0.7-0.4-0.8-0.7c-0.1-0.3-0.1-0.6,0-1l2.2-6.3
		c0.1-0.2,0.2-0.5,0.3-0.9c0.2-0.4,0.3-0.7,0.3-0.9c0.1-0.4,0.3-0.6,0.6-0.8c0.3-0.2,0.6-0.2,1,0c0.7,0.3,1,0.8,0.9,1.5
		c1.4-0.4,2.8-0.4,4.2,0.1c1.3,0.5,1.6,1.5,1,3.2C326.5,89.4,326.4,89.7,326.4,89.8z"/>
	<path id="XMLID_8_" class="st8" d="M333.4,100.6c-0.3-0.1-0.7-0.6-1.1-1.3c-0.7,0.1-1.3,0.1-1.8,0.1c-0.5,0-0.9-0.1-1.2-0.2
		c-1.5-0.5-2.5-1.4-3-2.5c-0.5-1.1-0.4-2.5,0.2-4.1c0.5-1.5,1.6-2.7,3.1-3.3c1.5-0.7,3.1-0.8,4.7-0.2c0.6,0.2,1.3,0.6,1.9,1.3
		c0.8,0.8,1.1,1.4,0.9,1.9c-0.1,0.2-0.2,0.4-0.4,0.5c-0.2,0.2-0.3,0.5-0.5,0.9c-0.2,0.4-0.3,0.8-0.5,1.3c-0.4,1.2-0.7,2.1-0.7,2.7
		c0,0.1,0,0.4,0.1,1.1c0.1,0.6,0.1,1,0,1.1c-0.1,0.3-0.3,0.6-0.7,0.7C334.1,100.7,333.8,100.8,333.4,100.6z M333.4,93.3
		c0.1-0.2,0.2-0.4,0.3-0.7c0.1-0.3,0.3-0.5,0.4-0.8c-0.1-0.1-0.2-0.2-0.3-0.3c-0.1-0.1-0.2-0.1-0.2-0.1c-0.9-0.3-1.8-0.2-2.6,0.2
		c-0.9,0.4-1.5,1.1-1.8,2c-0.3,0.9-0.4,1.6-0.2,2.1s0.5,0.9,1.2,1.1c0.4,0.1,0.8,0.2,1.2,0.2c0.4,0,0.8-0.1,1.2-0.2
		C332.8,95.2,333.1,94.1,333.4,93.3z"/>
	<path id="XMLID_235_" class="st8" d="M343.6,104.4c-0.8-0.3-1.1-0.8-0.9-1.6c0.1-0.7,0.3-1.4,0.4-2.1c0.2-0.7,0.3-1.4,0.6-2
		c0.1-0.2,0.2-0.4,0.3-0.8c0.2-0.4,0.3-0.7,0.3-0.8c0,0,0.1-0.2,0.1-0.3s0.1-0.3,0.2-0.4c0.2-0.5,0.2-0.8-0.1-0.9
		c-0.5-0.2-1.2,0-2,0.5c-0.8,0.5-1.5,1.3-2.2,2.2c-0.1,0.2-0.2,0.5-0.4,0.8c-0.1,0.3-0.3,0.6-0.4,0.8c-0.1,0.2-0.2,0.5-0.4,0.8
		c-0.2,0.4-0.3,0.6-0.4,0.8c-0.1,0.4-0.4,0.6-0.7,0.8c-0.3,0.2-0.7,0.2-1.1,0c-0.4-0.1-0.7-0.4-0.8-0.7c-0.2-0.3-0.2-0.7,0-1.1
		c0.1-0.2,0.1-0.5,0.2-0.8c0.1-0.4,0.2-0.7,0.2-0.8c0.2-0.6,0.6-1.5,1.1-2.6c0.5-1.1,0.8-1.9,1.1-2.6c0.1-0.2,0.2-0.5,0.3-0.9
		c0.1-0.4,0.2-0.7,0.3-0.9c0.1-0.4,0.4-0.6,0.7-0.8c0.3-0.1,0.7-0.2,1.1,0c0.8,0.3,1.1,1,0.8,2l0,0.1c1.3-0.6,2.4-0.7,3.5-0.4
		c1.2,0.4,1.9,1.2,2,2.4c0.1,0.8-0.1,1.9-0.6,3.2l-0.2,0.7c-0.1,0.3-0.2,0.5-0.2,0.6c-0.2,0.5-0.3,1.2-0.5,2c-0.1,0.8-0.3,1.5-0.5,2
		c-0.1,0.4-0.4,0.6-0.7,0.8C344.3,104.5,344,104.5,343.6,104.4z"/>
	<path id="XMLID_251_" class="st8" d="M355.8,100.1c-0.6-0.2-0.9-0.6-0.9-1.2c-0.2-0.1-0.5-0.3-0.8-0.3c-1.5-0.5-2.4-0.6-2.5-0.2
		c-0.1,0.2,0.3,0.8,1,1.5c1.1,1,1.8,1.8,2.1,2.3c0.7,1,0.9,1.9,0.6,2.8c-0.4,1.1-1.2,1.8-2.4,2c-1,0.2-2.1,0-3.3-0.4
		c-0.8-0.3-1.6-0.7-2.2-1.2c-0.8-0.7-1.1-1.4-0.9-2.1c0.2-0.6,0.7-0.8,1.5-0.6c0.3,0.1,0.7,0.3,1.2,0.7c0.5,0.4,0.9,0.6,1.2,0.7
		c1.3,0.5,2,0.4,2.2-0.1c0.1-0.3-0.2-0.8-1-1.6c-1.1-1-1.8-1.8-2.1-2.2c-0.7-1-0.9-1.9-0.5-2.8c0.5-1.3,1.4-1.9,3-1.9
		c0.9,0,2.2,0.3,3.8,0.9c0.6,0.2,1.1,0.5,1.3,0.8c0.3,0.4,0.4,0.9,0.2,1.5C356.9,99.8,356.4,100.3,355.8,100.1z"/>
	<path id="XMLID_341_" class="st8" d="M364.2,111.5c-0.3-0.1-0.7-0.6-1.1-1.3c-0.7,0.1-1.3,0.1-1.8,0.1c-0.5,0-0.9-0.1-1.2-0.2
		c-1.5-0.5-2.6-1.4-3-2.5c-0.5-1.1-0.4-2.5,0.2-4.1c0.5-1.5,1.6-2.7,3.1-3.3c1.5-0.7,3.1-0.8,4.7-0.2c0.6,0.2,1.2,0.6,1.9,1.3
		c0.8,0.8,1.1,1.4,0.9,1.9c-0.1,0.2-0.2,0.4-0.4,0.5c-0.2,0.2-0.3,0.5-0.5,0.9c-0.2,0.4-0.3,0.8-0.5,1.3c-0.4,1.2-0.7,2.1-0.7,2.7
		c0,0.1,0,0.4,0.1,1.1c0.1,0.6,0.1,1,0,1.1c-0.1,0.3-0.3,0.6-0.7,0.7C364.9,111.6,364.5,111.7,364.2,111.5z M364.1,104.2
		c0.1-0.2,0.2-0.4,0.3-0.7s0.3-0.5,0.4-0.8c-0.1-0.1-0.2-0.2-0.3-0.3c-0.1-0.1-0.2-0.1-0.2-0.1c-0.9-0.3-1.8-0.2-2.6,0.2
		c-0.9,0.4-1.5,1.1-1.8,2c-0.3,0.9-0.4,1.6-0.2,2.1c0.2,0.5,0.5,0.9,1.2,1.1c0.4,0.1,0.8,0.2,1.2,0.2c0.4,0,0.8-0.1,1.2-0.2
		C363.5,106.1,363.8,105,364.1,104.2z"/>
	<path id="XMLID_344_" class="st8" d="M371.2,114.1c-1.4-0.5-2.4-1.3-3.1-2.5c-0.7-1.2-0.8-2.5-0.3-3.9c0.5-1.3,1.4-2.4,2.8-3.5
		c1.6-1.2,3-1.5,4.4-1.1c0.7,0.2,1.4,0.7,2.1,1.4c0.9,0.8,1.3,1.5,1.1,2.1c-0.1,0.3-0.3,0.6-0.6,0.7c-0.3,0.2-0.7,0.2-1,0.1
		c-0.3-0.1-0.6-0.4-0.8-0.8c-0.3-0.4-0.8-0.8-1.6-1.1c-0.5-0.2-1.2,0.1-2.1,0.9c-0.9,0.7-1.4,1.4-1.7,2.1c-0.2,0.7-0.2,1.3,0.2,1.8
		c0.3,0.5,0.9,0.9,1.6,1.2c0.4,0.2,1,0.2,1.7,0.1c0.7-0.1,1.2-0.1,1.4-0.1c0.3,0.1,0.6,0.4,0.8,0.7c0.2,0.3,0.2,0.7,0.1,1
		c-0.2,0.5-0.9,0.8-2.2,0.9C372.7,114.4,371.8,114.3,371.2,114.1z"/>
	<path id="XMLID_381_" class="st8" d="M386.6,110.2c-0.1,0-0.3-0.1-0.5-0.2c-0.2-0.1-0.3-0.1-0.5-0.2c-0.3-0.1-0.6-0.2-0.9-0.2
		c-0.8,2.6-1.3,4.3-1.6,5.1c0,0.1-0.1,0.2-0.2,0.5s-0.1,0.4-0.2,0.6c-0.5,1.5-1.2,2-2.2,1.7c-0.4-0.1-0.6-0.3-0.8-0.6
		c-0.2-0.3-0.2-0.7-0.1-1c0.1-0.2,0.2-0.6,0.4-1c0.2-0.5,0.3-0.8,0.4-1c0.3-0.8,0.8-2.4,1.6-5c-0.4-0.2-1-0.4-1.7-0.8
		c-0.8-0.4-1-0.9-0.8-1.7c0.1-0.4,0.4-0.6,0.7-0.8c0.3-0.2,0.7-0.2,1.1,0c0.2,0.1,0.8,0.3,1.6,0.7c0.1-0.2,0.2-0.6,0.3-1
		c0.1-0.4,0.2-0.7,0.3-1c0.1-0.4,0.4-0.6,0.7-0.8c0.3-0.1,0.7-0.1,1.1,0c0.9,0.3,1.1,1.3,0.6,2.9l-0.3,0.8c0.4,0.1,0.8,0.2,1,0.3
		c0.7,0.3,1.2,0.5,1.5,0.7c0.4,0.4,0.6,0.8,0.4,1.4c-0.1,0.4-0.4,0.6-0.7,0.8C387.3,110.3,387,110.3,386.6,110.2z"/>
	<path id="XMLID_383_" class="st8" d="M390.9,115.4c-0.1,0.4-0.3,1-0.6,1.8c-0.3,0.8-0.5,1.4-0.6,1.8c-0.1,0.4-0.4,0.6-0.7,0.8
		c-0.3,0.2-0.7,0.2-1.1,0c-0.4-0.1-0.7-0.4-0.8-0.7c-0.2-0.3-0.2-0.7,0-1c0.1-0.4,0.3-1,0.6-1.8c0.3-0.8,0.5-1.4,0.6-1.8
		c0.2-0.6,0.5-1.3,0.9-2.1s0.7-1.5,0.9-2.1c0.1-0.4,0.4-0.6,0.7-0.8s0.7-0.2,1.1,0c0.4,0.1,0.7,0.4,0.8,0.7c0.2,0.3,0.2,0.7,0,1
		c-0.2,0.6-0.5,1.3-0.9,2.1C391.4,114.1,391.1,114.8,390.9,115.4z M392.6,108c-0.4-0.1-0.7-0.4-0.9-0.8s-0.2-0.8-0.1-1.2
		s0.4-0.7,0.8-0.8c0.4-0.2,0.8-0.2,1.2,0c0.4,0.1,0.7,0.4,0.9,0.8c0.2,0.4,0.2,0.8,0.1,1.2c-0.1,0.4-0.4,0.7-0.8,0.8
		C393.4,108.2,393,108.2,392.6,108z"/>
	<path id="XMLID_386_" class="st8" d="M395.6,122.7c-1.2-0.4-2.1-1.2-2.6-2.3c-0.6-1.2-0.7-2.6-0.2-4.1c0.5-1.4,1.3-2.6,2.5-3.4
		c1.4-1,3-1.1,4.7-0.5c1.3,0.5,2.1,1.3,2.5,2.6c0.4,1.2,0.3,2.4-0.2,3.8c-0.5,1.5-1.4,2.6-2.5,3.4
		C398.5,123.1,397.1,123.2,395.6,122.7z M399,114.9c-0.8-0.3-1.5-0.1-2.2,0.4c-0.6,0.5-1,1.1-1.3,1.9c-0.3,0.8-0.3,1.4,0,2
		c0.2,0.4,0.6,0.8,1,0.9c0.6,0.2,1.1,0.2,1.6-0.1c0.6-0.3,1.1-0.8,1.4-1.5C400.3,116.6,400.2,115.4,399,114.9z"/>
	<path id="XMLID_389_" class="st8" d="M409.5,127.8c-0.8-0.3-1.1-0.8-0.9-1.6c0.1-0.7,0.3-1.4,0.4-2.1c0.2-0.7,0.3-1.4,0.6-2
		c0.1-0.2,0.2-0.4,0.3-0.8c0.2-0.4,0.3-0.7,0.3-0.8c0,0,0.1-0.2,0.1-0.3s0.1-0.3,0.2-0.4c0.2-0.5,0.2-0.8-0.1-0.9
		c-0.5-0.2-1.2,0-2,0.5c-0.8,0.5-1.5,1.3-2.2,2.2c-0.1,0.2-0.2,0.5-0.4,0.8c-0.1,0.3-0.3,0.6-0.4,0.8c-0.1,0.2-0.2,0.5-0.4,0.8
		c-0.2,0.4-0.3,0.6-0.4,0.8c-0.1,0.4-0.4,0.6-0.7,0.8s-0.7,0.2-1.1,0c-0.4-0.1-0.7-0.4-0.8-0.7c-0.2-0.3-0.2-0.7,0-1.1
		c0.1-0.2,0.1-0.5,0.2-0.8c0.1-0.4,0.2-0.7,0.2-0.8c0.2-0.6,0.6-1.5,1.1-2.6s0.8-1.9,1.1-2.6c0.1-0.2,0.2-0.5,0.3-0.9
		c0.1-0.4,0.2-0.7,0.3-0.9c0.1-0.4,0.4-0.6,0.7-0.8c0.3-0.1,0.7-0.2,1.1,0c0.8,0.3,1.1,1,0.8,2l0,0.1c1.3-0.6,2.4-0.7,3.5-0.4
		c1.2,0.4,1.9,1.2,2,2.4c0.1,0.8-0.1,1.9-0.6,3.2l-0.2,0.7c-0.1,0.3-0.2,0.5-0.2,0.6c-0.2,0.5-0.3,1.2-0.5,2s-0.3,1.5-0.5,2
		c-0.1,0.4-0.4,0.6-0.7,0.8C410.2,127.9,409.9,127.9,409.5,127.8z"/>
	<path id="XMLID_391_" class="st8" d="M421.7,123.4c-0.6-0.2-0.9-0.6-0.9-1.2c-0.2-0.1-0.5-0.3-0.8-0.3c-1.5-0.5-2.4-0.6-2.5-0.2
		c-0.1,0.2,0.3,0.7,1,1.5c1.1,1,1.8,1.8,2.1,2.3c0.7,1,0.9,1.9,0.6,2.8c-0.4,1.1-1.2,1.8-2.4,2c-1,0.2-2.1,0-3.3-0.4
		c-0.8-0.3-1.6-0.7-2.2-1.2c-0.8-0.7-1.1-1.4-0.9-2.1c0.2-0.6,0.7-0.8,1.5-0.6c0.3,0.1,0.7,0.3,1.2,0.7c0.5,0.4,0.9,0.6,1.2,0.7
		c1.3,0.5,2,0.4,2.2-0.1c0.1-0.3-0.2-0.8-1-1.6c-1.1-1-1.8-1.8-2.1-2.2c-0.7-1-0.9-1.9-0.5-2.8c0.5-1.3,1.4-1.9,3-1.9
		c0.9,0,2.2,0.3,3.8,0.9c0.6,0.2,1.1,0.5,1.3,0.8c0.3,0.4,0.4,0.9,0.2,1.5C422.8,123.2,422.3,123.6,421.7,123.4z"/>
	<path id="XMLID_393_" class="st8" d="M320,122.6c-0.8-0.3-1.1-0.8-0.9-1.6c0.1-0.7,0.3-1.4,0.4-2.1c0.2-0.7,0.3-1.4,0.6-2
		c0.1-0.2,0.2-0.4,0.3-0.8c0.2-0.4,0.3-0.7,0.3-0.8c0,0,0.1-0.2,0.1-0.3c0.1-0.2,0.1-0.3,0.2-0.4c0.2-0.5,0.2-0.8-0.1-0.9
		c-0.5-0.2-1.2,0-2,0.5c-0.8,0.5-1.5,1.3-2.2,2.2c-0.1,0.2-0.2,0.5-0.4,0.8c-0.1,0.3-0.3,0.6-0.4,0.8c-0.1,0.2-0.2,0.5-0.4,0.8
		s-0.3,0.6-0.4,0.8c-0.1,0.4-0.4,0.6-0.7,0.8c-0.3,0.2-0.7,0.2-1.1,0c-0.4-0.1-0.7-0.4-0.8-0.7c-0.2-0.3-0.2-0.7,0-1.1
		c0.1-0.2,0.1-0.5,0.2-0.8c0.1-0.4,0.2-0.7,0.2-0.8c0.2-0.6,0.6-1.5,1.1-2.6c0.5-1.1,0.8-1.9,1.1-2.6c0.1-0.2,0.2-0.5,0.3-0.9
		c0.1-0.4,0.2-0.7,0.3-0.9c0.1-0.4,0.4-0.6,0.7-0.8c0.3-0.1,0.7-0.2,1.1,0c0.8,0.3,1.1,1,0.8,2l0,0.1c1.3-0.6,2.4-0.7,3.5-0.4
		c1.2,0.4,1.9,1.2,2,2.4c0.1,0.8-0.1,1.9-0.6,3.2l-0.2,0.7c-0.1,0.3-0.2,0.5-0.2,0.6c-0.2,0.5-0.3,1.2-0.5,2s-0.3,1.5-0.5,2
		c-0.1,0.4-0.4,0.6-0.7,0.8C320.7,122.7,320.4,122.7,320,122.6z"/>
	<path id="XMLID_395_" class="st8" d="M326.7,124.8c-1.2-0.4-2.1-1.2-2.6-2.3c-0.6-1.2-0.7-2.6-0.2-4.1c0.5-1.4,1.3-2.5,2.5-3.4
		c1.4-1,3-1.1,4.7-0.5c1.3,0.5,2.1,1.3,2.5,2.6c0.4,1.2,0.3,2.4-0.2,3.8c-0.5,1.5-1.4,2.6-2.5,3.4
		C329.6,125.2,328.2,125.3,326.7,124.8z M330.1,117c-0.8-0.3-1.5-0.1-2.2,0.4c-0.6,0.5-1,1.1-1.3,1.9c-0.3,0.8-0.3,1.4,0,2
		c0.2,0.4,0.6,0.8,1,0.9c0.6,0.2,1.1,0.2,1.6-0.1c0.6-0.3,1.1-0.8,1.4-1.5C331.5,118.7,331.3,117.5,330.1,117z"/>
	<path id="XMLID_398_" class="st8" d="M342.8,121.2c-0.1,0-0.3-0.1-0.5-0.2s-0.3-0.1-0.5-0.2c-0.3-0.1-0.6-0.2-0.9-0.2
		c-0.8,2.6-1.3,4.3-1.6,5.1c0,0.1-0.1,0.2-0.2,0.5c-0.1,0.2-0.1,0.4-0.2,0.6c-0.5,1.5-1.2,2-2.2,1.7c-0.4-0.1-0.6-0.3-0.8-0.6
		c-0.2-0.3-0.2-0.7-0.1-1c0.1-0.2,0.2-0.6,0.4-1c0.2-0.5,0.3-0.8,0.4-1c0.3-0.8,0.8-2.4,1.6-5c-0.4-0.2-1-0.4-1.7-0.8
		c-0.8-0.4-1-0.9-0.8-1.7c0.1-0.4,0.4-0.6,0.7-0.8c0.3-0.2,0.7-0.2,1.1,0c0.2,0.1,0.8,0.3,1.6,0.7c0.1-0.2,0.2-0.6,0.3-1
		c0.1-0.4,0.2-0.7,0.3-1c0.1-0.4,0.4-0.6,0.7-0.8c0.3-0.1,0.7-0.1,1.1,0c0.9,0.3,1.1,1.3,0.6,2.9l-0.3,0.8c0.4,0.1,0.7,0.2,1,0.3
		c0.7,0.3,1.2,0.5,1.5,0.7c0.4,0.4,0.6,0.8,0.4,1.4c-0.1,0.4-0.4,0.6-0.7,0.8C343.5,121.3,343.2,121.3,342.8,121.2z"/>
	<path id="XMLID_400_" class="st8" d="M359.1,124.6c0.9,0.2,1.5,0.4,1.9,0.5c1.2,0.4,1.6,1,1.4,1.9c-0.3,0.8-1.1,1-2.3,0.5
		c-0.4-0.2-1-0.3-1.9-0.6c-0.3,0.7-0.6,1.5-0.9,2.6c-0.5,1.5-0.8,2.4-0.9,2.6c-0.4,1.2-0.8,2.1-1.2,2.7s-0.9,0.8-1.6,0.6
		c-0.4-0.1-0.6-0.4-0.8-0.7c-0.2-0.3-0.2-0.7-0.1-1c0-0.1,0.1-0.2,0.1-0.2c0.5-0.9,0.9-1.7,1.1-2.5l1.7-4.8c-0.1,0-0.3-0.1-0.7-0.1
		c-0.3-0.1-0.4-0.1-0.6-0.1c-0.4-0.1-0.7-0.4-0.8-0.7c-0.2-0.3-0.2-0.7-0.1-1.1c0.2-0.6,0.7-0.9,1.4-0.8c0.3,0,0.9,0.2,1.7,0.4
		c0-0.1,0.2-0.5,0.5-1c0.7-1.4,1.4-2.3,2.3-2.8c1-0.6,2.3-0.6,3.9-0.1c1.2,0.4,1.6,1,1.3,1.9c-0.3,0.8-1,1.1-2.1,0.7
		c-0.8-0.3-1.4-0.2-2,0.2c-0.4,0.3-0.8,0.9-1.2,1.7L359.1,124.6z"/>
	<path id="XMLID_402_" class="st8" d="M364.8,138.3c-1.2-0.4-2.1-1.2-2.6-2.3c-0.6-1.2-0.7-2.6-0.2-4.1c0.5-1.4,1.3-2.5,2.5-3.4
		c1.4-1,3-1.1,4.7-0.5c1.3,0.5,2.1,1.3,2.5,2.6c0.4,1.2,0.3,2.4-0.2,3.8c-0.5,1.5-1.4,2.6-2.5,3.4
		C367.7,138.7,366.3,138.8,364.8,138.3z M368.2,130.5c-0.8-0.3-1.5-0.1-2.2,0.4c-0.6,0.5-1,1.1-1.3,1.9c-0.3,0.8-0.3,1.4,0,2
		c0.2,0.4,0.6,0.8,1,0.9c0.6,0.2,1.1,0.2,1.6-0.1c0.6-0.3,1.1-0.8,1.4-1.5C369.5,132.2,369.3,131,368.2,130.5z"/>
	<path id="XMLID_405_" class="st8" d="M381.7,137.4c-0.2,0.4-0.4,1.1-0.7,1.9s-0.5,1.5-0.7,1.9c0,0.1-0.1,0.3-0.2,0.6
		c-0.1,0.3-0.1,0.5-0.2,0.6c-0.1,0.4-0.4,0.6-0.7,0.7c-0.3,0.1-0.7,0.1-1.1,0c-0.5-0.2-0.8-0.6-0.9-1.1c-0.9,0-1.8-0.1-2.7-0.5
		c-0.9-0.3-1.6-0.8-2.1-1.4c-0.5-0.7-0.7-1.5-0.6-2.4c0.3-1.7,0.7-3.1,1.1-4.4c0.3-0.8,0.7-1.7,1.3-2.7c0.4-0.7,0.9-0.9,1.7-0.6
		c0.4,0.1,0.6,0.4,0.8,0.7c0.2,0.3,0.2,0.7,0.1,1c-0.1,0.3-0.3,0.7-0.6,1.3c-0.3,0.6-0.5,1-0.6,1.3c-0.3,0.9-0.6,1.7-0.7,2.4
		c-0.2,0.7-0.3,1.3-0.3,1.8c0.1,0.1,0.3,0.2,0.4,0.3c0.1,0.1,0.3,0.2,0.4,0.2c0.7,0.3,1.5,0.4,2.4,0.5c0.2-0.5,0.4-1.1,0.6-1.7
		c0.3-0.8,0.4-1.3,0.6-1.6c0.5-1.3,0.9-2.4,1.4-3.3c0.4-0.7,0.9-1,1.7-0.7c0.4,0.1,0.7,0.4,0.8,0.7c0.2,0.3,0.2,0.7,0.1,1
		C382.1,136.5,381.7,137.6,381.7,137.4z"/>
	<path id="XMLID_407_" class="st8" d="M388.9,147c-0.8-0.3-1.1-0.8-0.9-1.6c0.1-0.7,0.3-1.4,0.4-2.1c0.2-0.7,0.3-1.4,0.6-2
		c0.1-0.2,0.2-0.4,0.3-0.8c0.2-0.4,0.3-0.7,0.3-0.8c0,0,0.1-0.2,0.1-0.3s0.1-0.3,0.2-0.4c0.2-0.5,0.2-0.8-0.1-0.9
		c-0.5-0.2-1.2,0-2,0.5c-0.8,0.5-1.5,1.3-2.2,2.2c-0.1,0.2-0.2,0.5-0.4,0.8c-0.1,0.3-0.3,0.6-0.4,0.8c-0.1,0.2-0.2,0.5-0.4,0.8
		c-0.2,0.4-0.3,0.6-0.4,0.8c-0.1,0.4-0.4,0.6-0.7,0.8c-0.3,0.2-0.7,0.2-1.1,0c-0.4-0.1-0.7-0.4-0.8-0.7c-0.2-0.3-0.2-0.7,0-1.1
		c0.1-0.2,0.1-0.5,0.2-0.8c0.1-0.4,0.2-0.7,0.2-0.8c0.2-0.6,0.6-1.5,1.1-2.6s0.8-1.9,1.1-2.6c0.1-0.2,0.2-0.5,0.3-0.9
		c0.1-0.4,0.2-0.7,0.3-0.9c0.1-0.4,0.4-0.6,0.7-0.8c0.3-0.1,0.7-0.2,1.1,0c0.8,0.3,1.1,1,0.8,2l0,0.1c1.3-0.6,2.4-0.7,3.5-0.4
		c1.2,0.4,1.9,1.2,2,2.4c0.1,0.8-0.1,1.9-0.6,3.2l-0.2,0.7c-0.1,0.3-0.2,0.5-0.2,0.6c-0.2,0.5-0.3,1.2-0.5,2c-0.1,0.8-0.3,1.5-0.5,2
		c-0.1,0.4-0.4,0.6-0.7,0.8C389.6,147.1,389.3,147.1,388.9,147z"/>
	<path id="XMLID_409_" class="st8" d="M402.3,140.1c0.9-2.1,1.5-3.6,1.9-4.4c0.4-0.7,0.9-0.9,1.6-0.7c0.4,0.1,0.6,0.4,0.8,0.7
		s0.2,0.7,0,1c-0.3,0.9-0.9,2.3-1.7,4.1c-0.8,1.8-1.4,3.2-1.7,4.1c-0.8,2.3-1.3,3.8-1.4,4.7c0,0.1,0,0.2-0.1,0.3
		c-0.1,0.4-0.4,0.6-0.7,0.7c-0.3,0.1-0.7,0.1-1,0c-0.5-0.2-0.8-0.5-0.8-1c-0.5,0.1-1,0.1-1.5,0s-1-0.2-1.5-0.4
		c-1.4-0.5-2.5-1.4-3.1-2.6c-0.6-1.3-0.7-2.6-0.2-4.1c0.6-1.7,1.6-2.9,2.9-3.6c1.3-0.7,2.8-0.8,4.4-0.2c0.5,0.2,0.9,0.4,1.2,0.6
		C401.8,139.6,402.1,139.8,402.3,140.1z M401,143.1c-0.1-0.5-0.2-0.9-0.5-1.2s-0.6-0.6-1.1-0.7c-0.9-0.3-1.8-0.3-2.4,0.1
		c-0.7,0.4-1.2,1.1-1.6,2.2c-0.2,0.7-0.2,1.4,0.1,2c0.3,0.7,0.8,1.1,1.5,1.4c0.5,0.2,0.9,0.2,1.2,0.2c0.2,0,0.6-0.1,1.1-0.3
		c0.1-0.1,0.3-0.1,0.4-0.2C399.9,146.3,400.3,145.1,401,143.1z"/>
</g>
</svg>
